0
SECTION
2
HEADER
9
$ANGDIR
70
1
9
$AUNITS
70
0
9
$PROJECTNAME
1
Main
9
$TDCREATE
40
2458188.67960297
9
$INSUNITS
70
4
0
ENDSEC
0
SECTION
2
ENTITIES
0
POLYLINE
66
1
8
outline
10
0.0
20
0.0
30
0.0
70
1
0
VERTEX
8
0
10
0
20
-1.27
30
0
0
VERTEX
8
0
10
91.43
20
-1.27
30
0
0
VERTEX
8
0
10
91.43
20
42.300000000000004
30
0
0
VERTEX
8
0
10
0
20
42.300000000000004
30
0
0
VERTEX
8
0
10
0
20
-1.27
30
0
0
SEQEND
0
POLYLINE
66
1
8
holes
10
0.0
20
0.0
30
0.0
70
1
0
VERTEX
8
0
10
49.53
20
24.000103125000003
30
0
0
VERTEX
8
0
10
49.522168750000006
20
23.9006125
30
0
0
VERTEX
8
0
10
49.506559375
20
23.802043750000003
30
0
0
VERTEX
8
0
10
49.4832625
20
23.705003125
30
0
0
VERTEX
8
0
10
49.452421875
20
23.610090625
30
0
0
VERTEX
8
0
10
49.41423125
20
23.517890625
30
0
0
VERTEX
8
0
10
49.368925000000004
20
23.428971875000002
30
0
0
VERTEX
8
0
10
49.316781250000005
20
23.343881250000003
30
0
0
VERTEX
8
0
10
49.258121875
20
23.26314375
30
0
0
VERTEX
8
0
10
49.193309375000005
20
23.187259375
30
0
0
VERTEX
8
0
10
49.122740625000006
20
23.116690625
30
0
0
VERTEX
8
0
10
49.046856250000005
20
23.051878125
30
0
0
VERTEX
8
0
10
48.96611875
20
22.99321875
30
0
0
VERTEX
8
0
10
48.881028125
20
22.941075
30
0
0
VERTEX
8
0
10
48.792109375
20
22.895768750000002
30
0
0
VERTEX
8
0
10
48.699909375000004
20
22.857578125
30
0
0
VERTEX
8
0
10
48.604996875000005
20
22.8267375
30
0
0
VERTEX
8
0
10
48.50795625
20
22.803440625
30
0
0
VERTEX
8
0
10
48.4093875
20
22.78783125
30
0
0
VERTEX
8
0
10
48.309896875
20
22.78
30
0
0
VERTEX
8
0
10
48.210103125
20
22.78
30
0
0
VERTEX
8
0
10
48.1106125
20
22.78783125
30
0
0
VERTEX
8
0
10
48.012043750000004
20
22.803440625
30
0
0
VERTEX
8
0
10
47.915003125000005
20
22.8267375
30
0
0
VERTEX
8
0
10
47.820090625
20
22.857578125
30
0
0
VERTEX
8
0
10
47.727890625
20
22.895768750000002
30
0
0
VERTEX
8
0
10
47.638971875
20
22.941075
30
0
0
VERTEX
8
0
10
47.55388125
20
22.99321875
30
0
0
VERTEX
8
0
10
47.473143750000006
20
23.051878125
30
0
0
VERTEX
8
0
10
47.397259375000004
20
23.116690625
30
0
0
VERTEX
8
0
10
47.326690625000005
20
23.187259375
30
0
0
VERTEX
8
0
10
47.261878125
20
23.26314375
30
0
0
VERTEX
8
0
10
47.203218750000005
20
23.343881250000003
30
0
0
VERTEX
8
0
10
47.151075
20
23.428971875000002
30
0
0
VERTEX
8
0
10
47.10576875
20
23.517890625
30
0
0
VERTEX
8
0
10
47.067578125000004
20
23.610090625
30
0
0
VERTEX
8
0
10
47.0367375
20
23.705003125
30
0
0
VERTEX
8
0
10
47.013440625
20
23.802043750000003
30
0
0
VERTEX
8
0
10
46.997831250000004
20
23.9006125
30
0
0
VERTEX
8
0
10
46.99
20
24.000103125000003
30
0
0
VERTEX
8
0
10
46.99
20
24.099896875000002
30
0
0
VERTEX
8
0
10
46.997831250000004
20
24.1993875
30
0
0
VERTEX
8
0
10
47.013440625
20
24.297956250000002
30
0
0
VERTEX
8
0
10
47.0367375
20
24.394996875
30
0
0
VERTEX
8
0
10
47.067578125000004
20
24.489909375
30
0
0
VERTEX
8
0
10
47.10576875
20
24.582109375
30
0
0
VERTEX
8
0
10
47.151075
20
24.671028125
30
0
0
VERTEX
8
0
10
47.203218750000005
20
24.756118750000002
30
0
0
VERTEX
8
0
10
47.261878125
20
24.83685625
30
0
0
VERTEX
8
0
10
47.326690625000005
20
24.912740625
30
0
0
VERTEX
8
0
10
47.397259375000004
20
24.983309375
30
0
0
VERTEX
8
0
10
47.473143750000006
20
25.048121875
30
0
0
VERTEX
8
0
10
47.55388125
20
25.10678125
30
0
0
VERTEX
8
0
10
47.638971875
20
25.158925
30
0
0
VERTEX
8
0
10
47.727890625
20
25.204231250000003
30
0
0
VERTEX
8
0
10
47.820090625
20
25.242421875
30
0
0
VERTEX
8
0
10
47.915003125000005
20
25.2732625
30
0
0
VERTEX
8
0
10
48.012043750000004
20
25.296559375
30
0
0
VERTEX
8
0
10
48.1106125
20
25.31216875
30
0
0
VERTEX
8
0
10
48.210103125
20
25.32
30
0
0
VERTEX
8
0
10
48.309896875
20
25.32
30
0
0
VERTEX
8
0
10
48.4093875
20
25.31216875
30
0
0
VERTEX
8
0
10
48.50795625
20
25.296559375
30
0
0
VERTEX
8
0
10
48.604996875000005
20
25.2732625
30
0
0
VERTEX
8
0
10
48.699909375000004
20
25.242421875
30
0
0
VERTEX
8
0
10
48.792109375
20
25.204231250000003
30
0
0
VERTEX
8
0
10
48.881028125
20
25.158925
30
0
0
VERTEX
8
0
10
48.96611875
20
25.10678125
30
0
0
VERTEX
8
0
10
49.046856250000005
20
25.048121875
30
0
0
VERTEX
8
0
10
49.122740625000006
20
24.983309375
30
0
0
VERTEX
8
0
10
49.193309375000005
20
24.912740625
30
0
0
VERTEX
8
0
10
49.258121875
20
24.83685625
30
0
0
VERTEX
8
0
10
49.316781250000005
20
24.756118750000002
30
0
0
VERTEX
8
0
10
49.368925000000004
20
24.671028125
30
0
0
VERTEX
8
0
10
49.41423125
20
24.582109375
30
0
0
VERTEX
8
0
10
49.452421875
20
24.489909375
30
0
0
VERTEX
8
0
10
49.4832625
20
24.394996875
30
0
0
VERTEX
8
0
10
49.506559375
20
24.297956250000002
30
0
0
VERTEX
8
0
10
49.522168750000006
20
24.1993875
30
0
0
VERTEX
8
0
10
49.53
20
24.099896875000002
30
0
0
VERTEX
8
0
10
49.53
20
24.000103125000003
30
0
0
SEQEND
0
POLYLINE
66
1
8
holes
10
0.0
20
0.0
30
0.0
70
1
0
VERTEX
8
0
10
49.53
20
6.2201031250000005
30
0
0
VERTEX
8
0
10
49.522168750000006
20
6.1206125
30
0
0
VERTEX
8
0
10
49.506559375
20
6.02204375
30
0
0
VERTEX
8
0
10
49.4832625
20
5.925003125
30
0
0
VERTEX
8
0
10
49.452421875
20
5.830090625
30
0
0
VERTEX
8
0
10
49.41423125
20
5.737890625
30
0
0
VERTEX
8
0
10
49.368925000000004
20
5.648971875
30
0
0
VERTEX
8
0
10
49.316781250000005
20
5.5638812500000006
30
0
0
VERTEX
8
0
10
49.258121875
20
5.48314375
30
0
0
VERTEX
8
0
10
49.193309375000005
20
5.407259375000001
30
0
0
VERTEX
8
0
10
49.122740625000006
20
5.336690625
30
0
0
VERTEX
8
0
10
49.046856250000005
20
5.271878125000001
30
0
0
VERTEX
8
0
10
48.96611875
20
5.21321875
30
0
0
VERTEX
8
0
10
48.881028125
20
5.161075
30
0
0
VERTEX
8
0
10
48.792109375
20
5.11576875
30
0
0
VERTEX
8
0
10
48.699909375000004
20
5.0775781250000005
30
0
0
VERTEX
8
0
10
48.604996875000005
20
5.0467375
30
0
0
VERTEX
8
0
10
48.50795625
20
5.023440625
30
0
0
VERTEX
8
0
10
48.4093875
20
5.007831250000001
30
0
0
VERTEX
8
0
10
48.309896875
20
5
30
0
0
VERTEX
8
0
10
48.210103125
20
5
30
0
0
VERTEX
8
0
10
48.1106125
20
5.007831250000001
30
0
0
VERTEX
8
0
10
48.012043750000004
20
5.023440625
30
0
0
VERTEX
8
0
10
47.915003125000005
20
5.0467375
30
0
0
VERTEX
8
0
10
47.820090625
20
5.0775781250000005
30
0
0
VERTEX
8
0
10
47.727890625
20
5.11576875
30
0
0
VERTEX
8
0
10
47.638971875
20
5.161075
30
0
0
VERTEX
8
0
10
47.55388125
20
5.21321875
30
0
0
VERTEX
8
0
10
47.473143750000006
20
5.271878125000001
30
0
0
VERTEX
8
0
10
47.397259375000004
20
5.336690625
30
0
0
VERTEX
8
0
10
47.326690625000005
20
5.407259375000001
30
0
0
VERTEX
8
0
10
47.261878125
20
5.48314375
30
0
0
VERTEX
8
0
10
47.203218750000005
20
5.5638812500000006
30
0
0
VERTEX
8
0
10
47.151075
20
5.648971875
30
0
0
VERTEX
8
0
10
47.10576875
20
5.737890625
30
0
0
VERTEX
8
0
10
47.067578125000004
20
5.830090625
30
0
0
VERTEX
8
0
10
47.0367375
20
5.925003125
30
0
0
VERTEX
8
0
10
47.013440625
20
6.02204375
30
0
0
VERTEX
8
0
10
46.997831250000004
20
6.1206125
30
0
0
VERTEX
8
0
10
46.99
20
6.2201031250000005
30
0
0
VERTEX
8
0
10
46.99
20
6.319896875
30
0
0
VERTEX
8
0
10
46.997831250000004
20
6.4193875
30
0
0
VERTEX
8
0
10
47.013440625
20
6.51795625
30
0
0
VERTEX
8
0
10
47.0367375
20
6.614996875
30
0
0
VERTEX
8
0
10
47.067578125000004
20
6.7099093750000005
30
0
0
VERTEX
8
0
10
47.10576875
20
6.802109375000001
30
0
0
VERTEX
8
0
10
47.151075
20
6.891028125
30
0
0
VERTEX
8
0
10
47.203218750000005
20
6.97611875
30
0
0
VERTEX
8
0
10
47.261878125
20
7.05685625
30
0
0
VERTEX
8
0
10
47.326690625000005
20
7.132740625
30
0
0
VERTEX
8
0
10
47.397259375000004
20
7.203309375
30
0
0
VERTEX
8
0
10
47.473143750000006
20
7.268121875
30
0
0
VERTEX
8
0
10
47.55388125
20
7.326781250000001
30
0
0
VERTEX
8
0
10
47.638971875
20
7.378925000000001
30
0
0
VERTEX
8
0
10
47.727890625
20
7.42423125
30
0
0
VERTEX
8
0
10
47.820090625
20
7.462421875
30
0
0
VERTEX
8
0
10
47.915003125000005
20
7.4932625
30
0
0
VERTEX
8
0
10
48.012043750000004
20
7.516559375
30
0
0
VERTEX
8
0
10
48.1106125
20
7.53216875
30
0
0
VERTEX
8
0
10
48.210103125
20
7.54
30
0
0
VERTEX
8
0
10
48.309896875
20
7.54
30
0
0
VERTEX
8
0
10
48.4093875
20
7.53216875
30
0
0
VERTEX
8
0
10
48.50795625
20
7.516559375
30
0
0
VERTEX
8
0
10
48.604996875000005
20
7.4932625
30
0
0
VERTEX
8
0
10
48.699909375000004
20
7.462421875
30
0
0
VERTEX
8
0
10
48.792109375
20
7.42423125
30
0
0
VERTEX
8
0
10
48.881028125
20
7.378925000000001
30
0
0
VERTEX
8
0
10
48.96611875
20
7.326781250000001
30
0
0
VERTEX
8
0
10
49.046856250000005
20
7.268121875
30
0
0
VERTEX
8
0
10
49.122740625000006
20
7.203309375
30
0
0
VERTEX
8
0
10
49.193309375000005
20
7.132740625
30
0
0
VERTEX
8
0
10
49.258121875
20
7.05685625
30
0
0
VERTEX
8
0
10
49.316781250000005
20
6.97611875
30
0
0
VERTEX
8
0
10
49.368925000000004
20
6.891028125
30
0
0
VERTEX
8
0
10
49.41423125
20
6.802109375000001
30
0
0
VERTEX
8
0
10
49.452421875
20
6.7099093750000005
30
0
0
VERTEX
8
0
10
49.4832625
20
6.614996875
30
0
0
VERTEX
8
0
10
49.506559375
20
6.51795625
30
0
0
VERTEX
8
0
10
49.522168750000006
20
6.4193875
30
0
0
VERTEX
8
0
10
49.53
20
6.319896875
30
0
0
VERTEX
8
0
10
49.53
20
6.2201031250000005
30
0
0
SEQEND
0
POLYLINE
66
1
8
1_copper
10
0.0
20
0.0
30
0.0
70
1
0
VERTEX
8
0
10
70.531
20
26.001
30
0
0
VERTEX
8
0
10
69.169
20
26.001
30
0
0
VERTEX
8
0
10
69.169
20
24.639000000000003
30
0
0
VERTEX
8
0
10
70.531
20
24.639000000000003
30
0
0
SEQEND
0
POLYLINE
66
1
8
1_copper
10
0.0
20
0.0
30
0.0
70
1
0
VERTEX
8
0
10
70.531
20
8.221
30
0
0
VERTEX
8
0
10
69.169
20
8.221
30
0
0
VERTEX
8
0
10
69.169
20
6.859
30
0
0
VERTEX
8
0
10
70.531
20
6.859
30
0
0
SEQEND
0
POLYLINE
66
1
8
1_copper
10
0.0
20
0.0
30
0.0
70
1
0
VERTEX
8
0
10
67.991
20
8.221
30
0
0
VERTEX
8
0
10
66.629
20
8.221
30
0
0
VERTEX
8
0
10
66.629
20
6.859
30
0
0
VERTEX
8
0
10
67.991
20
6.859
30
0
0
SEQEND
0
POLYLINE
66
1
8
1_copper
10
0.0
20
0.0
30
0.0
70
1
0
VERTEX
8
0
10
65.45100000000001
20
8.221
30
0
0
VERTEX
8
0
10
64.089
20
8.221
30
0
0
VERTEX
8
0
10
64.089
20
6.859
30
0
0
VERTEX
8
0
10
65.45100000000001
20
6.859
30
0
0
SEQEND
0
POLYLINE
66
1
8
16_copper
10
0.0
20
0.0
30
0.0
70
1
0
VERTEX
8
0
10
70.531
20
26.001
30
0
0
VERTEX
8
0
10
69.169
20
26.001
30
0
0
VERTEX
8
0
10
69.169
20
24.639000000000003
30
0
0
VERTEX
8
0
10
70.531
20
24.639000000000003
30
0
0
SEQEND
0
POLYLINE
66
1
8
16_copper
10
0.0
20
0.0
30
0.0
70
1
0
VERTEX
8
0
10
70.531
20
8.221
30
0
0
VERTEX
8
0
10
69.169
20
8.221
30
0
0
VERTEX
8
0
10
69.169
20
6.859
30
0
0
VERTEX
8
0
10
70.531
20
6.859
30
0
0
SEQEND
0
POLYLINE
66
1
8
16_copper
10
0.0
20
0.0
30
0.0
70
1
0
VERTEX
8
0
10
67.991
20
8.221
30
0
0
VERTEX
8
0
10
66.629
20
8.221
30
0
0
VERTEX
8
0
10
66.629
20
6.859
30
0
0
VERTEX
8
0
10
67.991
20
6.859
30
0
0
SEQEND
0
POLYLINE
66
1
8
16_copper
10
0.0
20
0.0
30
0.0
70
1
0
VERTEX
8
0
10
65.45100000000001
20
8.221
30
0
0
VERTEX
8
0
10
64.089
20
8.221
30
0
0
VERTEX
8
0
10
64.089
20
6.859
30
0
0
VERTEX
8
0
10
65.45100000000001
20
6.859
30
0
0
SEQEND
0
POLYLINE
66
1
8
1_copper
10
0.0
20
0.0
30
0.0
70
1
0
VERTEX
8
0
10
7.736146875
20
36.328765625
30
0
42
0.36397036963702983
0
VERTEX
8
0
10
8.509
20
37.172184375
30
0
0
VERTEX
8
0
10
8.509
20
39.027815625
30
0
42
0.9572906161637668
0
VERTEX
8
0
10
6.731000000000001
20
39.027815625
30
0
0
VERTEX
8
0
10
6.731000000000001
20
37.172184375
30
0
0
VERTEX
8
0
10
6.737765625000001
20
37.094853125
30
0
0
VERTEX
8
0
10
6.7512468750000005
20
37.018403125
30
0
0
VERTEX
8
0
10
6.7713375000000005
20
36.94341875
30
0
0
VERTEX
8
0
10
6.797887500000001
20
36.870471875
30
0
0
VERTEX
8
0
10
6.830696875
20
36.800115625000004
30
0
0
VERTEX
8
0
10
6.869509375000001
20
36.732884375000005
30
0
0
VERTEX
8
0
10
6.9140375
20
36.669296875
30
0
0
VERTEX
8
0
10
6.9639375
20
36.609828125
30
0
0
VERTEX
8
0
10
7.018828125000001
20
36.5549375
30
0
0
VERTEX
8
0
10
7.078296875
20
36.5050375
30
0
0
VERTEX
8
0
10
7.141884375
20
36.460509375
30
0
0
VERTEX
8
0
10
7.209115625
20
36.421696875
30
0
0
VERTEX
8
0
10
7.2794718750000005
20
36.3888875
30
0
0
VERTEX
8
0
10
7.35241875
20
36.3623375
30
0
0
VERTEX
8
0
10
7.4274031250000005
20
36.342246875
30
0
0
VERTEX
8
0
10
7.503853125
20
36.328765625
30
0
0
VERTEX
8
0
10
7.581184375
20
36.322
30
0
0
VERTEX
8
0
10
7.658815625000001
20
36.322
30
0
0
SEQEND
0
POLYLINE
66
1
8
1_copper
10
0.0
20
0.0
30
0.0
70
1
0
VERTEX
8
0
10
67.991
20
26.001
30
0
0
VERTEX
8
0
10
66.629
20
26.001
30
0
0
VERTEX
8
0
10
66.629
20
24.639000000000003
30
0
0
VERTEX
8
0
10
67.991
20
24.639000000000003
30
0
0
SEQEND
0
POLYLINE
66
1
8
1_copper
10
0.0
20
0.0
30
0.0
70
1
0
VERTEX
8
0
10
87.36514687500001
20
23.247765625
30
0
42
0.916331393922359
0
VERTEX
8
0
10
87.28781562500001
20
25.019000000000002
30
0
0
VERTEX
8
0
10
85.432184375
20
25.019000000000002
30
0
42
0.9572906161637668
0
VERTEX
8
0
10
85.432184375
20
23.241
30
0
0
VERTEX
8
0
10
87.28781562500001
20
23.241
30
0
0
SEQEND
0
POLYLINE
66
1
8
16_copper
10
0.0
20
0.0
30
0.0
70
1
0
VERTEX
8
0
10
23.0937625
20
41.064878125
30
0
42
0.9460177413071488
0
VERTEX
8
0
10
23.150000000000002
20
40.052
30
0
0
VERTEX
8
0
10
29.85
20
40.052
30
0
42
0.9999999999999999
0
VERTEX
8
0
10
29.85
20
41.068000000000005
30
0
0
VERTEX
8
0
10
23.150000000000002
20
41.068000000000005
30
0
0
SEQEND
0
POLYLINE
66
1
8
16_copper
10
0.0
20
0.0
30
0.0
70
1
0
VERTEX
8
0
10
17.2062375
20
40.055121875000005
30
0
42
0.9460177413071488
0
VERTEX
8
0
10
17.150000000000002
20
41.068000000000005
30
0
0
VERTEX
8
0
10
8.81
20
41.068000000000005
30
0
42
0.198912367379658
0
VERTEX
8
0
10
8.450790625
20
40.919209375
30
0
0
VERTEX
8
0
10
7.3754
20
39.843818750000004
30
0
42
0.3226628706817809
0
VERTEX
8
0
10
6.731000000000001
20
39.027815625
30
0
0
VERTEX
8
0
10
6.731000000000001
20
37.172184375
30
0
42
0.9572906161637668
0
VERTEX
8
0
10
8.509
20
37.172184375
30
0
0
VERTEX
8
0
10
8.509
20
39.027815625
30
0
42
0.11806020776350179
0
VERTEX
8
0
10
8.394296875
20
39.425878125000004
30
0
0
VERTEX
8
0
10
9.020418750000001
20
40.052
30
0
0
VERTEX
8
0
10
17.150000000000002
20
40.052
30
0
0
SEQEND
0
POLYLINE
66
1
8
16_copper
10
0.0
20
0.0
30
0.0
70
1
0
VERTEX
8
0
10
87.65138125
20
0.7631875
30
0
42
0.18797716357646305
0
VERTEX
8
0
10
87.989209375
20
0.9107906250000001
30
0
0
VERTEX
8
0
10
89.259209375
20
2.180790625
30
0
42
0.198912367379658
0
VERTEX
8
0
10
89.408
20
2.54
30
0
0
VERTEX
8
0
10
89.408
20
22.86
30
0
42
0.198912367379658
0
VERTEX
8
0
10
89.259209375
20
23.219209375000002
30
0
0
VERTEX
8
0
10
88.34841875000001
20
24.130000000000003
30
0
0
VERTEX
8
0
10
89.259209375
20
25.040790625
30
0
42
0.198912367379658
0
VERTEX
8
0
10
89.408
20
25.400000000000002
30
0
0
VERTEX
8
0
10
89.408
20
27.94
30
0
42
0.198912367379658
0
VERTEX
8
0
10
89.259209375
20
28.299209375
30
0
0
VERTEX
8
0
10
87.989209375
20
29.569209375
30
0
42
0.198912367379658
0
VERTEX
8
0
10
87.63000000000001
20
29.718
30
0
0
VERTEX
8
0
10
73.87041875
20
29.718
30
0
0
VERTEX
8
0
10
72.89800000000001
20
30.690418750000003
30
0
0
VERTEX
8
0
10
72.89800000000001
20
36.83
30
0
42
0.198912367379658
0
VERTEX
8
0
10
72.749209375
20
37.189209375000004
30
0
0
VERTEX
8
0
10
71.479209375
20
38.459209375
30
0
42
0.198912367379658
0
VERTEX
8
0
10
71.12
20
38.608000000000004
30
0
0
VERTEX
8
0
10
38.310418750000004
20
38.608000000000004
30
0
0
VERTEX
8
0
10
36.357975
20
40.560443750000005
30
0
42
0.9995633121668516
0
VERTEX
8
0
10
35.342
20
40.56
30
0
0
VERTEX
8
0
10
35.342
20
40.35
30
0
42
0.198912367379658
0
VERTEX
8
0
10
35.490790625
20
39.990790625
30
0
0
VERTEX
8
0
10
37.740790625
20
37.740790625
30
0
42
0.198912367379658
0
VERTEX
8
0
10
38.1
20
37.592
30
0
0
VERTEX
8
0
10
70.90958125
20
37.592
30
0
0
VERTEX
8
0
10
71.882
20
36.61958125
30
0
0
VERTEX
8
0
10
71.882
20
30.48
30
0
42
0.198912367379658
0
VERTEX
8
0
10
72.03079062500001
20
30.120790625
30
0
0
VERTEX
8
0
10
73.300790625
20
28.850790625000002
30
0
42
0.198912367379658
0
VERTEX
8
0
10
73.66
20
28.702
30
0
0
VERTEX
8
0
10
87.41958125000001
20
28.702
30
0
0
VERTEX
8
0
10
88.39200000000001
20
27.729581250000003
30
0
0
VERTEX
8
0
10
88.39200000000001
20
25.61041875
30
0
0
VERTEX
8
0
10
87.685878125
20
24.904296875
30
0
42
0.11806020776350179
0
VERTEX
8
0
10
87.28781562500001
20
25.019000000000002
30
0
0
VERTEX
8
0
10
85.432184375
20
25.019000000000002
30
0
42
0.3226628706817809
0
VERTEX
8
0
10
84.61618125000001
20
24.3746
30
0
0
VERTEX
8
0
10
81.06958125
20
20.828
30
0
0
VERTEX
8
0
10
68.79041875
20
20.828
30
0
0
VERTEX
8
0
10
67.818
20
21.800418750000002
30
0
0
VERTEX
8
0
10
67.818
20
24.639000000000003
30
0
0
VERTEX
8
0
10
67.991
20
24.639000000000003
30
0
0
VERTEX
8
0
10
67.991
20
26.001
30
0
0
VERTEX
8
0
10
66.629
20
26.001
30
0
0
VERTEX
8
0
10
66.629
20
24.639000000000003
30
0
0
VERTEX
8
0
10
66.802
20
24.639000000000003
30
0
0
VERTEX
8
0
10
66.802
20
21.59
30
0
42
0.198912367379658
0
VERTEX
8
0
10
66.950790625
20
21.230790625
30
0
0
VERTEX
8
0
10
68.220790625
20
19.960790625
30
0
42
0.198912367379658
0
VERTEX
8
0
10
68.58
20
19.812
30
0
0
VERTEX
8
0
10
81.28
20
19.812
30
0
42
0.198912367379658
0
VERTEX
8
0
10
81.63920937500001
20
19.960790625
30
0
0
VERTEX
8
0
10
85.03412187500001
20
23.355703125
30
0
42
0.11806020776350179
0
VERTEX
8
0
10
85.432184375
20
23.241
30
0
0
VERTEX
8
0
10
87.28781562500001
20
23.241
30
0
42
0.11806020776350179
0
VERTEX
8
0
10
87.685878125
20
23.355703125
30
0
0
VERTEX
8
0
10
88.39200000000001
20
22.64958125
30
0
0
VERTEX
8
0
10
88.39200000000001
20
2.75041875
30
0
0
VERTEX
8
0
10
87.41958125000001
20
1.778
30
0
0
VERTEX
8
0
10
15.45041875
20
1.778
30
0
0
VERTEX
8
0
10
14.478000000000002
20
2.75041875
30
0
0
VERTEX
8
0
10
14.478000000000002
20
5
30
0
42
0.9999999999999999
0
VERTEX
8
0
10
13.462000000000002
20
5
30
0
0
VERTEX
8
0
10
13.462000000000002
20
2.54
30
0
42
0.198912367379658
0
VERTEX
8
0
10
13.610790625
20
2.180790625
30
0
0
VERTEX
8
0
10
14.880790625000001
20
0.9107906250000001
30
0
42
0.198912367379658
0
VERTEX
8
0
10
15.24
20
0.762
30
0
0
VERTEX
8
0
10
87.63000000000001
20
0.762
30
0
0
SEQEND
0
POLYLINE
66
1
8
1_copper
10
0.0
20
0.0
30
0.0
70
1
0
VERTEX
8
0
10
16.0274
20
17.37385
30
0
0
VERTEX
8
0
10
16.0274
20
18.02615
30
0
0
VERTEX
8
0
10
15.56615
20
18.4874
30
0
0
VERTEX
8
0
10
14.91385
20
18.4874
30
0
0
VERTEX
8
0
10
14.4526
20
18.02615
30
0
0
VERTEX
8
0
10
14.4526
20
17.37385
30
0
0
VERTEX
8
0
10
14.91385
20
16.9126
30
0
0
VERTEX
8
0
10
15.56615
20
16.9126
30
0
0
SEQEND
0
POLYLINE
66
1
8
16_copper
10
0.0
20
0.0
30
0.0
70
1
0
VERTEX
8
0
10
34.794878125000004
20
25.1222375
30
0
42
0.9460177413071488
0
VERTEX
8
0
10
33.782000000000004
20
25.066000000000003
30
0
0
VERTEX
8
0
10
33.782000000000004
20
19.26041875
30
0
0
VERTEX
8
0
10
32.80958125
20
18.288
30
0
0
VERTEX
8
0
10
15.765550000000001
20
18.288
30
0
0
VERTEX
8
0
10
15.56615
20
18.4874
30
0
0
VERTEX
8
0
10
14.91385
20
18.4874
30
0
0
VERTEX
8
0
10
14.4526
20
18.02615
30
0
0
VERTEX
8
0
10
14.4526
20
17.37385
30
0
0
VERTEX
8
0
10
14.91385
20
16.9126
30
0
0
VERTEX
8
0
10
15.56615
20
16.9126
30
0
0
VERTEX
8
0
10
15.925550000000001
20
17.272000000000002
30
0
0
VERTEX
8
0
10
33.02
20
17.272000000000002
30
0
42
0.198912367379658
0
VERTEX
8
0
10
33.379209375
20
17.420790625000002
30
0
0
VERTEX
8
0
10
34.649209375000005
20
18.690790625
30
0
42
0.198912367379658
0
VERTEX
8
0
10
34.798
20
19.05
30
0
0
VERTEX
8
0
10
34.798
20
25.066000000000003
30
0
0
SEQEND
0
POLYLINE
66
1
8
1_copper
10
0.0
20
0.0
30
0.0
70
1
0
VERTEX
8
0
10
10.276146875
20
36.328765625
30
0
42
0.36397036963702983
0
VERTEX
8
0
10
11.049000000000001
20
37.172184375
30
0
0
VERTEX
8
0
10
11.049000000000001
20
39.027815625
30
0
42
0.9572906161637668
0
VERTEX
8
0
10
9.271
20
39.027815625
30
0
0
VERTEX
8
0
10
9.271
20
37.172184375
30
0
0
VERTEX
8
0
10
9.277765625
20
37.094853125
30
0
0
VERTEX
8
0
10
9.291246875
20
37.018403125
30
0
0
VERTEX
8
0
10
9.3113375
20
36.94341875
30
0
0
VERTEX
8
0
10
9.3378875
20
36.870471875
30
0
0
VERTEX
8
0
10
9.370696875
20
36.800115625000004
30
0
0
VERTEX
8
0
10
9.409509375
20
36.732884375000005
30
0
0
VERTEX
8
0
10
9.4540375
20
36.669296875
30
0
0
VERTEX
8
0
10
9.503937500000001
20
36.609828125
30
0
0
VERTEX
8
0
10
9.558828125
20
36.5549375
30
0
0
VERTEX
8
0
10
9.618296875
20
36.5050375
30
0
0
VERTEX
8
0
10
9.681884375000001
20
36.460509375
30
0
0
VERTEX
8
0
10
9.749115625
20
36.421696875
30
0
0
VERTEX
8
0
10
9.819471875
20
36.3888875
30
0
0
VERTEX
8
0
10
9.892418750000001
20
36.3623375
30
0
0
VERTEX
8
0
10
9.967403125
20
36.342246875
30
0
0
VERTEX
8
0
10
10.043853125
20
36.328765625
30
0
0
VERTEX
8
0
10
10.121184375
20
36.322
30
0
0
VERTEX
8
0
10
10.198815625
20
36.322
30
0
0
SEQEND
0
POLYLINE
66
1
8
1_copper
10
0.0
20
0.0
30
0.0
70
1
0
VERTEX
8
0
10
8.4074
20
22.453850000000003
30
0
0
VERTEX
8
0
10
8.4074
20
23.10615
30
0
0
VERTEX
8
0
10
7.94615
20
23.567400000000003
30
0
0
VERTEX
8
0
10
7.29385
20
23.567400000000003
30
0
0
VERTEX
8
0
10
6.8326
20
23.10615
30
0
0
VERTEX
8
0
10
6.8326
20
22.453850000000003
30
0
0
VERTEX
8
0
10
7.29385
20
21.9926
30
0
0
VERTEX
8
0
10
7.94615
20
21.9926
30
0
0
SEQEND
0
POLYLINE
66
1
8
16_copper
10
0.0
20
0.0
30
0.0
70
1
0
VERTEX
8
0
10
8.4074
20
22.453850000000003
30
0
0
VERTEX
8
0
10
8.4074
20
23.10615
30
0
0
VERTEX
8
0
10
8.128
20
23.385550000000002
30
0
0
VERTEX
8
0
10
8.128
20
28.999581250000002
30
0
0
VERTEX
8
0
10
10.519209375
20
31.390790625
30
0
42
0.198912367379658
0
VERTEX
8
0
10
10.668000000000001
20
31.75
30
0
0
VERTEX
8
0
10
10.668000000000001
20
36.4814375
30
0
42
0.23385812931317795
0
VERTEX
8
0
10
11.049000000000001
20
37.172184375
30
0
0
VERTEX
8
0
10
11.049000000000001
20
39.027815625
30
0
42
0.9572906161637668
0
VERTEX
8
0
10
9.271
20
39.027815625
30
0
0
VERTEX
8
0
10
9.271
20
37.172184375
30
0
42
0.23385812931317795
0
VERTEX
8
0
10
9.652000000000001
20
36.4814375
30
0
0
VERTEX
8
0
10
9.652000000000001
20
31.960418750000002
30
0
0
VERTEX
8
0
10
7.260790625
20
29.569209375
30
0
42
0.198912367379658
0
VERTEX
8
0
10
7.112
20
29.21
30
0
0
VERTEX
8
0
10
7.112
20
23.385550000000002
30
0
0
VERTEX
8
0
10
6.8326
20
23.10615
30
0
0
VERTEX
8
0
10
6.8326
20
22.453850000000003
30
0
0
VERTEX
8
0
10
7.29385
20
21.9926
30
0
0
VERTEX
8
0
10
7.94615
20
21.9926
30
0
0
SEQEND
0
POLYLINE
66
1
8
1_copper
10
0.0
20
0.0
30
0.0
70
1
0
VERTEX
8
0
10
32.5374
20
28.883850000000002
30
0
0
VERTEX
8
0
10
32.5374
20
29.536150000000003
30
0
0
VERTEX
8
0
10
32.07615
20
29.997400000000003
30
0
0
VERTEX
8
0
10
31.42385
20
29.997400000000003
30
0
0
VERTEX
8
0
10
30.962600000000002
20
29.536150000000003
30
0
0
VERTEX
8
0
10
30.962600000000002
20
28.883850000000002
30
0
0
VERTEX
8
0
10
31.42385
20
28.422600000000003
30
0
0
VERTEX
8
0
10
32.07615
20
28.422600000000003
30
0
0
SEQEND
0
POLYLINE
66
1
8
16_copper
10
0.0
20
0.0
30
0.0
70
1
0
VERTEX
8
0
10
26.717281250000003
20
24.81420625
30
0
42
0.3871695768438092
0
VERTEX
8
0
10
27.178
20
25.32
30
0
0
VERTEX
8
0
10
27.178
20
27.732271875000002
30
0
42
0.01664807049198984
0
VERTEX
8
0
10
27.203209375
20
27.754790625000002
30
0
0
VERTEX
8
0
10
28.15041875
20
28.702
30
0
0
VERTEX
8
0
10
31.144450000000003
20
28.702
30
0
0
VERTEX
8
0
10
31.42385
20
28.422600000000003
30
0
0
VERTEX
8
0
10
32.07615
20
28.422600000000003
30
0
0
VERTEX
8
0
10
32.5374
20
28.883850000000002
30
0
0
VERTEX
8
0
10
32.5374
20
29.536150000000003
30
0
0
VERTEX
8
0
10
32.07615
20
29.997400000000003
30
0
0
VERTEX
8
0
10
31.42385
20
29.997400000000003
30
0
0
VERTEX
8
0
10
31.144450000000003
20
29.718
30
0
0
VERTEX
8
0
10
27.94
20
29.718
30
0
42
0.198912367379658
0
VERTEX
8
0
10
27.580790625000002
20
29.569209375
30
0
0
VERTEX
8
0
10
26.631715625000002
20
28.620134375000003
30
0
42
0.3922699615707703
0
VERTEX
8
0
10
26.162000000000003
20
28.114
30
0
0
VERTEX
8
0
10
26.162000000000003
20
25.32
30
0
0
VERTEX
8
0
10
26.165121875
20
25.263762500000002
30
0
0
VERTEX
8
0
10
26.174453125000003
20
25.208212500000002
30
0
0
VERTEX
8
0
10
26.189875
20
25.154040625
30
0
0
VERTEX
8
0
10
26.211196875000002
20
25.101906250000003
30
0
0
VERTEX
8
0
10
26.2381625
20
25.052456250000002
30
0
0
VERTEX
8
0
10
26.270434375
20
25.00629375
30
0
0
VERTEX
8
0
10
26.307621875000002
20
24.9639875
30
0
0
VERTEX
8
0
10
26.349262500000002
20
24.926056250000002
30
0
0
VERTEX
8
0
10
26.39484375
20
24.892971875
30
0
0
VERTEX
8
0
10
26.443809375
20
24.865134375
30
0
0
VERTEX
8
0
10
26.49555625
20
24.842890625000003
30
0
0
VERTEX
8
0
10
26.54945
20
24.8265125
30
0
0
VERTEX
8
0
10
26.604821875000003
20
24.816200000000002
30
0
0
VERTEX
8
0
10
26.660996875000002
20
24.812081250000002
30
0
0
SEQEND
0
POLYLINE
66
1
8
1_copper
10
0.0
20
0.0
30
0.0
70
1
0
VERTEX
8
0
10
65.45100000000001
20
26.001
30
0
0
VERTEX
8
0
10
64.089
20
26.001
30
0
0
VERTEX
8
0
10
64.089
20
24.639000000000003
30
0
0
VERTEX
8
0
10
65.45100000000001
20
24.639000000000003
30
0
0
SEQEND
0
POLYLINE
66
1
8
16_copper
10
0.0
20
0.0
30
0.0
70
1
0
VERTEX
8
0
10
63.521381250000005
20
21.0031875
30
0
42
0.18797716357646305
0
VERTEX
8
0
10
63.859209375000006
20
21.150790625000003
30
0
0
VERTEX
8
0
10
65.129209375
20
22.420790625000002
30
0
42
0.198912367379658
0
VERTEX
8
0
10
65.278
20
22.78
30
0
0
VERTEX
8
0
10
65.278
20
24.639000000000003
30
0
0
VERTEX
8
0
10
65.45100000000001
20
24.639000000000003
30
0
0
VERTEX
8
0
10
65.45100000000001
20
26.001
30
0
0
VERTEX
8
0
10
64.089
20
26.001
30
0
0
VERTEX
8
0
10
64.089
20
24.639000000000003
30
0
0
VERTEX
8
0
10
64.262
20
24.639000000000003
30
0
0
VERTEX
8
0
10
64.262
20
22.99041875
30
0
0
VERTEX
8
0
10
63.289581250000005
20
22.018
30
0
0
VERTEX
8
0
10
45.93041875
20
22.018
30
0
0
VERTEX
8
0
10
44.958000000000006
20
22.99041875
30
0
0
VERTEX
8
0
10
44.958000000000006
20
25.32
30
0
42
0.9999999999999999
0
VERTEX
8
0
10
43.942
20
25.32
30
0
0
VERTEX
8
0
10
43.942
20
22.78
30
0
42
0.198912367379658
0
VERTEX
8
0
10
44.090790625000004
20
22.420790625000002
30
0
0
VERTEX
8
0
10
45.360790625
20
21.150790625000003
30
0
42
0.198912367379658
0
VERTEX
8
0
10
45.72
20
21.002000000000002
30
0
0
VERTEX
8
0
10
63.5
20
21.002000000000002
30
0
0
SEQEND
0
POLYLINE
66
1
8
1_copper
10
0.0
20
0.0
30
0.0
70
1
0
VERTEX
8
0
10
62.911
20
26.001
30
0
0
VERTEX
8
0
10
61.549
20
26.001
30
0
0
VERTEX
8
0
10
61.549
20
24.639000000000003
30
0
0
VERTEX
8
0
10
62.911
20
24.639000000000003
30
0
0
SEQEND
0
POLYLINE
66
1
8
16_copper
10
0.0
20
0.0
30
0.0
70
1
0
VERTEX
8
0
10
62.911
20
26.001
30
0
0
VERTEX
8
0
10
62.738
20
26.001
30
0
0
VERTEX
8
0
10
62.738
20
34.21
30
0
42
0.198912367379658
0
VERTEX
8
0
10
62.589209375
20
34.569209375
30
0
0
VERTEX
8
0
10
61.319209375
20
35.839209375
30
0
42
0.198912367379658
0
VERTEX
8
0
10
60.96
20
35.988
30
0
0
VERTEX
8
0
10
43.18
20
35.988
30
0
42
0.198912367379658
0
VERTEX
8
0
10
42.820790625
20
35.839209375
30
0
0
VERTEX
8
0
10
41.550790625000005
20
34.569209375
30
0
42
0.198912367379658
0
VERTEX
8
0
10
41.402
20
34.21
30
0
0
VERTEX
8
0
10
41.402
20
25.32
30
0
42
0.9293626099141804
0
VERTEX
8
0
10
42.412568750000005
20
25.245903125
30
0
0
VERTEX
8
0
10
42.418
20
25.32
30
0
0
VERTEX
8
0
10
42.418
20
33.99958125
30
0
0
VERTEX
8
0
10
43.39041875
20
34.972
30
0
0
VERTEX
8
0
10
60.749581250000006
20
34.972
30
0
0
VERTEX
8
0
10
61.722
20
33.99958125
30
0
0
VERTEX
8
0
10
61.722
20
26.001
30
0
0
VERTEX
8
0
10
61.549
20
26.001
30
0
0
VERTEX
8
0
10
61.549
20
24.639000000000003
30
0
0
VERTEX
8
0
10
62.911
20
24.639000000000003
30
0
0
SEQEND
0
POLYLINE
66
1
8
1_copper
10
0.0
20
0.0
30
0.0
70
1
0
VERTEX
8
0
10
46.507400000000004
20
32.61385
30
0
0
VERTEX
8
0
10
46.507400000000004
20
33.26615
30
0
0
VERTEX
8
0
10
46.046150000000004
20
33.7274
30
0
0
VERTEX
8
0
10
45.39385
20
33.7274
30
0
0
VERTEX
8
0
10
44.9326
20
33.26615
30
0
0
VERTEX
8
0
10
44.9326
20
32.61385
30
0
0
VERTEX
8
0
10
45.39385
20
32.1526
30
0
0
VERTEX
8
0
10
46.046150000000004
20
32.1526
30
0
0
SEQEND
0
POLYLINE
66
1
8
1_copper
10
0.0
20
0.0
30
0.0
70
1
0
VERTEX
8
0
10
60.371
20
26.001
30
0
0
VERTEX
8
0
10
59.009
20
26.001
30
0
0
VERTEX
8
0
10
59.009
20
24.639000000000003
30
0
0
VERTEX
8
0
10
60.371
20
24.639000000000003
30
0
0
SEQEND
0
POLYLINE
66
1
8
16_copper
10
0.0
20
0.0
30
0.0
70
1
0
VERTEX
8
0
10
60.371
20
26.001
30
0
0
VERTEX
8
0
10
60.198
20
26.001
30
0
0
VERTEX
8
0
10
60.198
20
31.67
30
0
42
0.198912367379658
0
VERTEX
8
0
10
60.049209375000004
20
32.029209375
30
0
0
VERTEX
8
0
10
58.779209375
20
33.299209375000004
30
0
42
0.198912367379658
0
VERTEX
8
0
10
58.42
20
33.448
30
0
0
VERTEX
8
0
10
46.32555
20
33.448
30
0
0
VERTEX
8
0
10
46.046150000000004
20
33.7274
30
0
0
VERTEX
8
0
10
45.39385
20
33.7274
30
0
0
VERTEX
8
0
10
44.9326
20
33.26615
30
0
0
VERTEX
8
0
10
44.9326
20
32.61385
30
0
0
VERTEX
8
0
10
45.39385
20
32.1526
30
0
0
VERTEX
8
0
10
46.046150000000004
20
32.1526
30
0
0
VERTEX
8
0
10
46.32555
20
32.432
30
0
0
VERTEX
8
0
10
58.20958125
20
32.432
30
0
0
VERTEX
8
0
10
59.182
20
31.459581250000003
30
0
0
VERTEX
8
0
10
59.182
20
26.001
30
0
0
VERTEX
8
0
10
59.009
20
26.001
30
0
0
VERTEX
8
0
10
59.009
20
24.639000000000003
30
0
0
VERTEX
8
0
10
60.371
20
24.639000000000003
30
0
0
SEQEND
0
POLYLINE
66
1
8
1_copper
10
0.0
20
0.0
30
0.0
70
1
0
VERTEX
8
0
10
73.1774
20
7.29385
30
0
0
VERTEX
8
0
10
73.1774
20
7.94615
30
0
0
VERTEX
8
0
10
72.71615
20
8.4074
30
0
0
VERTEX
8
0
10
72.06385
20
8.4074
30
0
0
VERTEX
8
0
10
71.60260000000001
20
7.94615
30
0
0
VERTEX
8
0
10
71.60260000000001
20
7.29385
30
0
0
VERTEX
8
0
10
72.06385
20
6.8326
30
0
0
VERTEX
8
0
10
72.71615
20
6.8326
30
0
0
SEQEND
0
POLYLINE
66
1
8
1_copper
10
0.0
20
0.0
30
0.0
70
1
0
VERTEX
8
0
10
62.911
20
8.221
30
0
0
VERTEX
8
0
10
61.549
20
8.221
30
0
0
VERTEX
8
0
10
61.549
20
6.859
30
0
0
VERTEX
8
0
10
62.911
20
6.859
30
0
0
SEQEND
0
POLYLINE
66
1
8
16_copper
10
0.0
20
0.0
30
0.0
70
1
0
VERTEX
8
0
10
71.14138125000001
20
3.3031875
30
0
42
0.18797716357646305
0
VERTEX
8
0
10
71.479209375
20
3.4507906250000002
30
0
0
VERTEX
8
0
10
72.749209375
20
4.720790625
30
0
42
0.198912367379658
0
VERTEX
8
0
10
72.89800000000001
20
5.08
30
0
0
VERTEX
8
0
10
72.89800000000001
20
7.01445
30
0
0
VERTEX
8
0
10
73.1774
20
7.29385
30
0
0
VERTEX
8
0
10
73.1774
20
7.94615
30
0
0
VERTEX
8
0
10
72.71615
20
8.4074
30
0
0
VERTEX
8
0
10
72.06385
20
8.4074
30
0
0
VERTEX
8
0
10
71.60260000000001
20
7.94615
30
0
0
VERTEX
8
0
10
71.60260000000001
20
7.29385
30
0
0
VERTEX
8
0
10
71.882
20
7.01445
30
0
0
VERTEX
8
0
10
71.882
20
5.290418750000001
30
0
0
VERTEX
8
0
10
70.90958125
20
4.3180000000000005
30
0
0
VERTEX
8
0
10
63.71041875
20
4.3180000000000005
30
0
0
VERTEX
8
0
10
62.738
20
5.290418750000001
30
0
0
VERTEX
8
0
10
62.738
20
6.859
30
0
0
VERTEX
8
0
10
62.911
20
6.859
30
0
0
VERTEX
8
0
10
62.911
20
8.221
30
0
0
VERTEX
8
0
10
61.549
20
8.221
30
0
0
VERTEX
8
0
10
61.549
20
6.859
30
0
0
VERTEX
8
0
10
61.722
20
6.859
30
0
0
VERTEX
8
0
10
61.722
20
5.08
30
0
42
0.198912367379658
0
VERTEX
8
0
10
61.870790625000005
20
4.720790625
30
0
0
VERTEX
8
0
10
63.140790625
20
3.4507906250000002
30
0
42
0.198912367379658
0
VERTEX
8
0
10
63.5
20
3.302
30
0
0
VERTEX
8
0
10
71.12
20
3.302
30
0
0
SEQEND
0
POLYLINE
66
1
8
1_copper
10
0.0
20
0.0
30
0.0
70
1
0
VERTEX
8
0
10
32.5374
20
36.50385
30
0
0
VERTEX
8
0
10
32.5374
20
37.156150000000004
30
0
0
VERTEX
8
0
10
32.07615
20
37.6174
30
0
0
VERTEX
8
0
10
31.42385
20
37.6174
30
0
0
VERTEX
8
0
10
30.962600000000002
20
37.156150000000004
30
0
0
VERTEX
8
0
10
30.962600000000002
20
36.50385
30
0
0
VERTEX
8
0
10
31.42385
20
36.0426
30
0
0
VERTEX
8
0
10
32.07615
20
36.0426
30
0
0
SEQEND
0
POLYLINE
66
1
8
16_copper
10
0.0
20
0.0
30
0.0
70
1
0
VERTEX
8
0
10
32.5374
20
36.50385
30
0
0
VERTEX
8
0
10
32.5374
20
37.156150000000004
30
0
0
VERTEX
8
0
10
32.258
20
37.43555
30
0
0
VERTEX
8
0
10
32.258
20
40.56
30
0
42
0.9999999999999999
0
VERTEX
8
0
10
31.242
20
40.56
30
0
0
VERTEX
8
0
10
31.242
20
37.43555
30
0
0
VERTEX
8
0
10
30.962600000000002
20
37.156150000000004
30
0
0
VERTEX
8
0
10
30.962600000000002
20
36.50385
30
0
0
VERTEX
8
0
10
31.42385
20
36.0426
30
0
0
VERTEX
8
0
10
32.07615
20
36.0426
30
0
0
SEQEND
0
POLYLINE
66
1
8
1_copper
10
0.0
20
0.0
30
0.0
70
1
0
VERTEX
8
0
10
19.837400000000002
20
36.50385
30
0
0
VERTEX
8
0
10
19.837400000000002
20
37.156150000000004
30
0
0
VERTEX
8
0
10
19.376150000000003
20
37.6174
30
0
0
VERTEX
8
0
10
18.723850000000002
20
37.6174
30
0
0
VERTEX
8
0
10
18.262600000000003
20
37.156150000000004
30
0
0
VERTEX
8
0
10
18.262600000000003
20
36.50385
30
0
0
VERTEX
8
0
10
18.723850000000002
20
36.0426
30
0
0
VERTEX
8
0
10
19.376150000000003
20
36.0426
30
0
0
SEQEND
0
POLYLINE
66
1
8
16_copper
10
0.0
20
0.0
30
0.0
70
1
0
VERTEX
8
0
10
19.554878125000002
20
40.6962375
30
0
0
VERTEX
8
0
10
19.545546875
20
40.7517875
30
0
0
VERTEX
8
0
10
19.530125
20
40.805959375
30
0
42
0.7412367407079042
0
VERTEX
8
0
10
18.558725000000003
20
40.769278125
30
0
0
VERTEX
8
0
10
18.547431250000002
20
40.714096875
30
0
0
VERTEX
8
0
10
18.542
20
40.64
30
0
0
VERTEX
8
0
10
18.542
20
37.43555
30
0
0
VERTEX
8
0
10
18.262600000000003
20
37.156150000000004
30
0
0
VERTEX
8
0
10
18.262600000000003
20
36.50385
30
0
0
VERTEX
8
0
10
18.723850000000002
20
36.0426
30
0
0
VERTEX
8
0
10
19.376150000000003
20
36.0426
30
0
0
VERTEX
8
0
10
19.837400000000002
20
36.50385
30
0
0
VERTEX
8
0
10
19.837400000000002
20
37.156150000000004
30
0
0
VERTEX
8
0
10
19.558
20
37.43555
30
0
0
VERTEX
8
0
10
19.558
20
40.64
30
0
0
SEQEND
0
POLYLINE
66
1
8
1_copper
10
0.0
20
0.0
30
0.0
70
1
0
VERTEX
8
0
10
87.36514687500001
20
20.707765625
30
0
42
0.916331393922359
0
VERTEX
8
0
10
87.28781562500001
20
22.479000000000003
30
0
0
VERTEX
8
0
10
85.432184375
20
22.479000000000003
30
0
42
0.9572906161637668
0
VERTEX
8
0
10
85.432184375
20
20.701
30
0
0
VERTEX
8
0
10
87.28781562500001
20
20.701
30
0
0
SEQEND
0
POLYLINE
66
1
8
16_copper
10
0.0
20
0.0
30
0.0
70
1
0
VERTEX
8
0
10
82.57138125
20
18.543187500000002
30
0
42
0.18797716357646305
0
VERTEX
8
0
10
82.909209375
20
18.690790625
30
0
0
VERTEX
8
0
10
85.03412187500001
20
20.815703125000002
30
0
42
0.11806020776350179
0
VERTEX
8
0
10
85.432184375
20
20.701
30
0
0
VERTEX
8
0
10
87.28781562500001
20
20.701
30
0
42
0.9572906161637668
0
VERTEX
8
0
10
87.28781562500001
20
22.479000000000003
30
0
0
VERTEX
8
0
10
85.432184375
20
22.479000000000003
30
0
42
0.3226628706817809
0
VERTEX
8
0
10
84.61618125000001
20
21.834600000000002
30
0
0
VERTEX
8
0
10
82.33958125000001
20
19.558
30
0
0
VERTEX
8
0
10
40.85041875
20
19.558
30
0
0
VERTEX
8
0
10
39.878
20
20.530418750000003
30
0
0
VERTEX
8
0
10
39.878
20
25.32
30
0
42
0.9999999999999999
0
VERTEX
8
0
10
38.862
20
25.32
30
0
0
VERTEX
8
0
10
38.862
20
20.32
30
0
42
0.198912367379658
0
VERTEX
8
0
10
39.010790625
20
19.960790625
30
0
0
VERTEX
8
0
10
40.280790625
20
18.690790625
30
0
42
0.198912367379658
0
VERTEX
8
0
10
40.64
20
18.542
30
0
0
VERTEX
8
0
10
82.55
20
18.542
30
0
0
SEQEND
0
POLYLINE
66
1
8
1_copper
10
0.0
20
0.0
30
0.0
70
1
0
VERTEX
8
0
10
87.36514687500001
20
18.167765625
30
0
42
0.916331393922359
0
VERTEX
8
0
10
87.28781562500001
20
19.939
30
0
0
VERTEX
8
0
10
85.432184375
20
19.939
30
0
42
0.9572906161637668
0
VERTEX
8
0
10
85.432184375
20
18.161
30
0
0
VERTEX
8
0
10
87.28781562500001
20
18.161
30
0
0
SEQEND
0
POLYLINE
66
1
8
16_copper
10
0.0
20
0.0
30
0.0
70
1
0
VERTEX
8
0
10
83.84138125
20
17.273187500000002
30
0
42
0.18797716357646305
0
VERTEX
8
0
10
84.179209375
20
17.420790625000002
30
0
0
VERTEX
8
0
10
85.03412187500001
20
18.275703125
30
0
42
0.11806020776350179
0
VERTEX
8
0
10
85.432184375
20
18.161
30
0
0
VERTEX
8
0
10
87.28781562500001
20
18.161
30
0
42
0.9572906161637668
0
VERTEX
8
0
10
87.28781562500001
20
19.939
30
0
0
VERTEX
8
0
10
85.432184375
20
19.939
30
0
42
0.3226628706817809
0
VERTEX
8
0
10
84.61618125000001
20
19.294600000000003
30
0
0
VERTEX
8
0
10
83.60958125
20
18.288
30
0
0
VERTEX
8
0
10
38.310418750000004
20
18.288
30
0
0
VERTEX
8
0
10
37.338
20
19.26041875
30
0
0
VERTEX
8
0
10
37.338
20
25.32
30
0
42
0.9999999999999999
0
VERTEX
8
0
10
36.322
20
25.32
30
0
0
VERTEX
8
0
10
36.322
20
19.05
30
0
42
0.198912367379658
0
VERTEX
8
0
10
36.470790625
20
18.690790625
30
0
0
VERTEX
8
0
10
37.740790625
20
17.420790625000002
30
0
42
0.198912367379658
0
VERTEX
8
0
10
38.1
20
17.272000000000002
30
0
0
VERTEX
8
0
10
83.82000000000001
20
17.272000000000002
30
0
0
SEQEND
0
POLYLINE
66
1
8
1_copper
10
0.0
20
0.0
30
0.0
70
1
0
VERTEX
8
0
10
87.36514687500001
20
2.927765625
30
0
42
0.916331393922359
0
VERTEX
8
0
10
87.28781562500001
20
4.699
30
0
0
VERTEX
8
0
10
85.432184375
20
4.699
30
0
42
0.9572906161637668
0
VERTEX
8
0
10
85.432184375
20
2.9210000000000003
30
0
0
VERTEX
8
0
10
87.28781562500001
20
2.9210000000000003
30
0
0
SEQEND
0
POLYLINE
66
1
8
16_copper
10
0.0
20
0.0
30
0.0
70
1
0
VERTEX
8
0
10
87.36514687500001
20
2.927765625
30
0
42
0.916331393922359
0
VERTEX
8
0
10
87.28781562500001
20
4.699
30
0
0
VERTEX
8
0
10
85.432184375
20
4.699
30
0
42
0.11806020776350179
0
VERTEX
8
0
10
85.03412187500001
20
4.584296875000001
30
0
0
VERTEX
8
0
10
79.099209375
20
10.519209375
30
0
42
0.198912367379658
0
VERTEX
8
0
10
78.74000000000001
20
10.668000000000001
30
0
0
VERTEX
8
0
10
30.48
20
10.668000000000001
30
0
42
0.198912367379658
0
VERTEX
8
0
10
30.120790625
20
10.519209375
30
0
0
VERTEX
8
0
10
28.850790625000002
20
9.249209375000001
30
0
42
0.198912367379658
0
VERTEX
8
0
10
28.702
20
8.89
30
0
0
VERTEX
8
0
10
28.702
20
5
30
0
42
0.9293626099141804
0
VERTEX
8
0
10
29.712568750000003
20
4.9259031250000005
30
0
0
VERTEX
8
0
10
29.718
20
5
30
0
0
VERTEX
8
0
10
29.718
20
8.67958125
30
0
0
VERTEX
8
0
10
30.690418750000003
20
9.652000000000001
30
0
0
VERTEX
8
0
10
78.52958125
20
9.652000000000001
30
0
0
VERTEX
8
0
10
84.61618125000001
20
3.5654000000000003
30
0
42
0.3226628706817809
0
VERTEX
8
0
10
85.432184375
20
2.9210000000000003
30
0
0
VERTEX
8
0
10
87.28781562500001
20
2.9210000000000003
30
0
0
SEQEND
0
POLYLINE
66
1
8
1_copper
10
0.0
20
0.0
30
0.0
70
1
0
VERTEX
8
0
10
87.36514687500001
20
5.467765625
30
0
42
0.916331393922359
0
VERTEX
8
0
10
87.28781562500001
20
7.239000000000001
30
0
0
VERTEX
8
0
10
85.432184375
20
7.239000000000001
30
0
42
0.9572906161637668
0
VERTEX
8
0
10
85.432184375
20
5.461
30
0
0
VERTEX
8
0
10
87.28781562500001
20
5.461
30
0
0
SEQEND
0
POLYLINE
66
1
8
16_copper
10
0.0
20
0.0
30
0.0
70
1
0
VERTEX
8
0
10
26.717281250000003
20
4.49420625
30
0
42
0.3871695768438092
0
VERTEX
8
0
10
27.178
20
5
30
0
0
VERTEX
8
0
10
27.178
20
9.94958125
30
0
0
VERTEX
8
0
10
28.15041875
20
10.922
30
0
0
VERTEX
8
0
10
79.79958125
20
10.922
30
0
0
VERTEX
8
0
10
84.61618125000001
20
6.1054
30
0
42
0.3226628706817809
0
VERTEX
8
0
10
85.432184375
20
5.461
30
0
0
VERTEX
8
0
10
87.28781562500001
20
5.461
30
0
42
0.9572906161637668
0
VERTEX
8
0
10
87.28781562500001
20
7.239000000000001
30
0
0
VERTEX
8
0
10
85.432184375
20
7.239000000000001
30
0
42
0.11806020776350179
0
VERTEX
8
0
10
85.03412187500001
20
7.124296875000001
30
0
0
VERTEX
8
0
10
80.369209375
20
11.789209375
30
0
42
0.198912367379658
0
VERTEX
8
0
10
80.01
20
11.938
30
0
0
VERTEX
8
0
10
27.94
20
11.938
30
0
42
0.198912367379658
0
VERTEX
8
0
10
27.580790625000002
20
11.789209375
30
0
0
VERTEX
8
0
10
26.310790625000003
20
10.519209375
30
0
42
0.198912367379658
0
VERTEX
8
0
10
26.162000000000003
20
10.16
30
0
0
VERTEX
8
0
10
26.162000000000003
20
5
30
0
0
VERTEX
8
0
10
26.165121875
20
4.9437625
30
0
0
VERTEX
8
0
10
26.174453125000003
20
4.8882125
30
0
0
VERTEX
8
0
10
26.189875
20
4.834040625
30
0
0
VERTEX
8
0
10
26.211196875000002
20
4.7819062500000005
30
0
0
VERTEX
8
0
10
26.2381625
20
4.73245625
30
0
0
VERTEX
8
0
10
26.270434375
20
4.68629375
30
0
0
VERTEX
8
0
10
26.307621875000002
20
4.643987500000001
30
0
0
VERTEX
8
0
10
26.349262500000002
20
4.60605625
30
0
0
VERTEX
8
0
10
26.39484375
20
4.572971875
30
0
0
VERTEX
8
0
10
26.443809375
20
4.545134375
30
0
0
VERTEX
8
0
10
26.49555625
20
4.5228906250000005
30
0
0
VERTEX
8
0
10
26.54945
20
4.5065125
30
0
0
VERTEX
8
0
10
26.604821875000003
20
4.4962
30
0
0
VERTEX
8
0
10
26.660996875000002
20
4.49208125
30
0
0
SEQEND
0
POLYLINE
66
1
8
1_copper
10
0.0
20
0.0
30
0.0
70
1
0
VERTEX
8
0
10
87.36514687500001
20
8.007765625000001
30
0
42
0.916331393922359
0
VERTEX
8
0
10
87.28781562500001
20
9.779
30
0
0
VERTEX
8
0
10
85.432184375
20
9.779
30
0
42
0.9572906161637668
0
VERTEX
8
0
10
85.432184375
20
8.001000000000001
30
0
0
VERTEX
8
0
10
87.28781562500001
20
8.001000000000001
30
0
0
SEQEND
0
POLYLINE
66
1
8
16_copper
10
0.0
20
0.0
30
0.0
70
1
0
VERTEX
8
0
10
24.17728125
20
4.49420625
30
0
42
0.3871695768438092
0
VERTEX
8
0
10
24.638
20
5
30
0
0
VERTEX
8
0
10
24.638
20
11.219581250000001
30
0
0
VERTEX
8
0
10
25.61041875
20
12.192
30
0
0
VERTEX
8
0
10
81.06958125
20
12.192
30
0
0
VERTEX
8
0
10
84.61618125000001
20
8.6454
30
0
42
0.3226628706817809
0
VERTEX
8
0
10
85.432184375
20
8.001000000000001
30
0
0
VERTEX
8
0
10
87.28781562500001
20
8.001000000000001
30
0
42
0.9572906161637668
0
VERTEX
8
0
10
87.28781562500001
20
9.779
30
0
0
VERTEX
8
0
10
85.432184375
20
9.779
30
0
42
0.11806020776350179
0
VERTEX
8
0
10
85.03412187500001
20
9.664296875
30
0
0
VERTEX
8
0
10
81.63920937500001
20
13.059209375
30
0
42
0.198912367379658
0
VERTEX
8
0
10
81.28
20
13.208
30
0
0
VERTEX
8
0
10
25.400000000000002
20
13.208
30
0
42
0.198912367379658
0
VERTEX
8
0
10
25.040790625
20
13.059209375
30
0
0
VERTEX
8
0
10
23.770790625
20
11.789209375
30
0
42
0.198912367379658
0
VERTEX
8
0
10
23.622
20
11.43
30
0
0
VERTEX
8
0
10
23.622
20
5
30
0
0
VERTEX
8
0
10
23.625121875
20
4.9437625
30
0
0
VERTEX
8
0
10
23.634453125
20
4.8882125
30
0
0
VERTEX
8
0
10
23.649875
20
4.834040625
30
0
0
VERTEX
8
0
10
23.671196875
20
4.7819062500000005
30
0
0
VERTEX
8
0
10
23.698162500000002
20
4.73245625
30
0
0
VERTEX
8
0
10
23.730434375
20
4.68629375
30
0
0
VERTEX
8
0
10
23.767621875
20
4.643987500000001
30
0
0
VERTEX
8
0
10
23.809262500000003
20
4.60605625
30
0
0
VERTEX
8
0
10
23.85484375
20
4.572971875
30
0
0
VERTEX
8
0
10
23.903809375
20
4.545134375
30
0
0
VERTEX
8
0
10
23.95555625
20
4.5228906250000005
30
0
0
VERTEX
8
0
10
24.00945
20
4.5065125
30
0
0
VERTEX
8
0
10
24.064821875
20
4.4962
30
0
0
VERTEX
8
0
10
24.120996875
20
4.49208125
30
0
0
SEQEND
0
POLYLINE
66
1
8
1_copper
10
0.0
20
0.0
30
0.0
70
1
0
VERTEX
8
0
10
87.36514687500001
20
10.547765625
30
0
42
0.916331393922359
0
VERTEX
8
0
10
87.28781562500001
20
12.319
30
0
0
VERTEX
8
0
10
85.432184375
20
12.319
30
0
42
0.9572906161637668
0
VERTEX
8
0
10
85.432184375
20
10.541
30
0
0
VERTEX
8
0
10
87.28781562500001
20
10.541
30
0
0
SEQEND
0
POLYLINE
66
1
8
16_copper
10
0.0
20
0.0
30
0.0
70
1
0
VERTEX
8
0
10
21.63728125
20
4.49420625
30
0
42
0.3871695768438092
0
VERTEX
8
0
10
22.098000000000003
20
5
30
0
0
VERTEX
8
0
10
22.098000000000003
20
12.48958125
30
0
0
VERTEX
8
0
10
23.07041875
20
13.462000000000002
30
0
0
VERTEX
8
0
10
82.33958125000001
20
13.462000000000002
30
0
0
VERTEX
8
0
10
84.61618125000001
20
11.185400000000001
30
0
42
0.3226628706817809
0
VERTEX
8
0
10
85.432184375
20
10.541
30
0
0
VERTEX
8
0
10
87.28781562500001
20
10.541
30
0
42
0.9572906161637668
0
VERTEX
8
0
10
87.28781562500001
20
12.319
30
0
0
VERTEX
8
0
10
85.432184375
20
12.319
30
0
42
0.11806020776350179
0
VERTEX
8
0
10
85.03412187500001
20
12.204296875
30
0
0
VERTEX
8
0
10
82.909209375
20
14.329209375000001
30
0
42
0.198912367379658
0
VERTEX
8
0
10
82.55
20
14.478000000000002
30
0
0
VERTEX
8
0
10
22.86
20
14.478000000000002
30
0
42
0.198912367379658
0
VERTEX
8
0
10
22.500790625
20
14.329209375000001
30
0
0
VERTEX
8
0
10
21.230790625
20
13.059209375
30
0
42
0.198912367379658
0
VERTEX
8
0
10
21.082
20
12.700000000000001
30
0
0
VERTEX
8
0
10
21.082
20
5
30
0
0
VERTEX
8
0
10
21.085121875000002
20
4.9437625
30
0
0
VERTEX
8
0
10
21.094453125
20
4.8882125
30
0
0
VERTEX
8
0
10
21.109875000000002
20
4.834040625
30
0
0
VERTEX
8
0
10
21.131196875
20
4.7819062500000005
30
0
0
VERTEX
8
0
10
21.1581625
20
4.73245625
30
0
0
VERTEX
8
0
10
21.190434375000002
20
4.68629375
30
0
0
VERTEX
8
0
10
21.227621875
20
4.643987500000001
30
0
0
VERTEX
8
0
10
21.2692625
20
4.60605625
30
0
0
VERTEX
8
0
10
21.31484375
20
4.572971875
30
0
0
VERTEX
8
0
10
21.363809375000002
20
4.545134375
30
0
0
VERTEX
8
0
10
21.41555625
20
4.5228906250000005
30
0
0
VERTEX
8
0
10
21.469450000000002
20
4.5065125
30
0
0
VERTEX
8
0
10
21.524821875
20
4.4962
30
0
0
VERTEX
8
0
10
21.580996875
20
4.49208125
30
0
0
SEQEND
0
POLYLINE
66
1
8
1_copper
10
0.0
20
0.0
30
0.0
70
1
0
VERTEX
8
0
10
87.36514687500001
20
13.087765625000001
30
0
42
0.916331393922359
0
VERTEX
8
0
10
87.28781562500001
20
14.859
30
0
0
VERTEX
8
0
10
85.432184375
20
14.859
30
0
42
0.9572906161637668
0
VERTEX
8
0
10
85.432184375
20
13.081000000000001
30
0
0
VERTEX
8
0
10
87.28781562500001
20
13.081000000000001
30
0
0
SEQEND
0
POLYLINE
66
1
8
16_copper
10
0.0
20
0.0
30
0.0
70
1
0
VERTEX
8
0
10
19.09728125
20
4.49420625
30
0
42
0.3871695768438092
0
VERTEX
8
0
10
19.558
20
5
30
0
0
VERTEX
8
0
10
19.558
20
13.75958125
30
0
0
VERTEX
8
0
10
20.530418750000003
20
14.732000000000001
30
0
0
VERTEX
8
0
10
83.60958125
20
14.732000000000001
30
0
0
VERTEX
8
0
10
84.61618125000001
20
13.7254
30
0
42
0.3226628706817809
0
VERTEX
8
0
10
85.432184375
20
13.081000000000001
30
0
0
VERTEX
8
0
10
87.28781562500001
20
13.081000000000001
30
0
42
0.9572906161637668
0
VERTEX
8
0
10
87.28781562500001
20
14.859
30
0
0
VERTEX
8
0
10
85.432184375
20
14.859
30
0
42
0.11806020776350179
0
VERTEX
8
0
10
85.03412187500001
20
14.744296875
30
0
0
VERTEX
8
0
10
84.179209375
20
15.599209375000001
30
0
42
0.198912367379658
0
VERTEX
8
0
10
83.82000000000001
20
15.748000000000001
30
0
0
VERTEX
8
0
10
20.32
20
15.748000000000001
30
0
42
0.198912367379658
0
VERTEX
8
0
10
19.960790625
20
15.599209375000001
30
0
0
VERTEX
8
0
10
18.690790625
20
14.329209375000001
30
0
42
0.198912367379658
0
VERTEX
8
0
10
18.542
20
13.97
30
0
0
VERTEX
8
0
10
18.542
20
5
30
0
0
VERTEX
8
0
10
18.545121875
20
4.9437625
30
0
0
VERTEX
8
0
10
18.554453125000002
20
4.8882125
30
0
0
VERTEX
8
0
10
18.569875
20
4.834040625
30
0
0
VERTEX
8
0
10
18.591196875
20
4.7819062500000005
30
0
0
VERTEX
8
0
10
18.6181625
20
4.73245625
30
0
0
VERTEX
8
0
10
18.650434375
20
4.68629375
30
0
0
VERTEX
8
0
10
18.687621875
20
4.643987500000001
30
0
0
VERTEX
8
0
10
18.7292625
20
4.60605625
30
0
0
VERTEX
8
0
10
18.774843750000002
20
4.572971875
30
0
0
VERTEX
8
0
10
18.823809375
20
4.545134375
30
0
0
VERTEX
8
0
10
18.875556250000002
20
4.5228906250000005
30
0
0
VERTEX
8
0
10
18.92945
20
4.5065125
30
0
0
VERTEX
8
0
10
18.984821875
20
4.4962
30
0
0
VERTEX
8
0
10
19.040996875
20
4.49208125
30
0
0
SEQEND
0
POLYLINE
66
1
8
1_copper
10
0.0
20
0.0
30
0.0
70
1
0
VERTEX
8
0
10
87.36514687500001
20
15.627765625
30
0
42
0.916331393922359
0
VERTEX
8
0
10
87.28781562500001
20
17.399
30
0
0
VERTEX
8
0
10
85.432184375
20
17.399
30
0
42
0.9572906161637668
0
VERTEX
8
0
10
85.432184375
20
15.621
30
0
0
VERTEX
8
0
10
87.28781562500001
20
15.621
30
0
0
SEQEND
0
POLYLINE
66
1
8
16_copper
10
0.0
20
0.0
30
0.0
70
1
0
VERTEX
8
0
10
16.55728125
20
4.49420625
30
0
42
0.3871695768438092
0
VERTEX
8
0
10
17.018
20
5
30
0
0
VERTEX
8
0
10
17.018
20
15.029581250000001
30
0
0
VERTEX
8
0
10
17.99041875
20
16.002000000000002
30
0
0
VERTEX
8
0
10
84.7414375
20
16.002000000000002
30
0
42
0.23385812931317795
0
VERTEX
8
0
10
85.432184375
20
15.621
30
0
0
VERTEX
8
0
10
87.28781562500001
20
15.621
30
0
42
0.9572906161637668
0
VERTEX
8
0
10
87.28781562500001
20
17.399
30
0
0
VERTEX
8
0
10
85.432184375
20
17.399
30
0
42
0.23385812931317795
0
VERTEX
8
0
10
84.7414375
20
17.018
30
0
0
VERTEX
8
0
10
17.78
20
17.018
30
0
42
0.198912367379658
0
VERTEX
8
0
10
17.420790625000002
20
16.869209375
30
0
0
VERTEX
8
0
10
16.150790625
20
15.599209375000001
30
0
42
0.198912367379658
0
VERTEX
8
0
10
16.002000000000002
20
15.24
30
0
0
VERTEX
8
0
10
16.002000000000002
20
5
30
0
0
VERTEX
8
0
10
16.005121875
20
4.9437625
30
0
0
VERTEX
8
0
10
16.014453125
20
4.8882125
30
0
0
VERTEX
8
0
10
16.029875
20
4.834040625
30
0
0
VERTEX
8
0
10
16.051196875000002
20
4.7819062500000005
30
0
0
VERTEX
8
0
10
16.0781625
20
4.73245625
30
0
0
VERTEX
8
0
10
16.110434375
20
4.68629375
30
0
0
VERTEX
8
0
10
16.147621875000002
20
4.643987500000001
30
0
0
VERTEX
8
0
10
16.1892625
20
4.60605625
30
0
0
VERTEX
8
0
10
16.23484375
20
4.572971875
30
0
0
VERTEX
8
0
10
16.283809375
20
4.545134375
30
0
0
VERTEX
8
0
10
16.33555625
20
4.5228906250000005
30
0
0
VERTEX
8
0
10
16.38945
20
4.5065125
30
0
0
VERTEX
8
0
10
16.444821875000002
20
4.4962
30
0
0
VERTEX
8
0
10
16.500996875000002
20
4.49208125
30
0
0
SEQEND
0
POLYLINE
66
1
8
1_copper
10
0.0
20
0.0
30
0.0
70
1
0
VERTEX
8
0
10
87.36514687500001
20
25.787765625000002
30
0
42
0.916331393922359
0
VERTEX
8
0
10
87.28781562500001
20
27.559
30
0
0
VERTEX
8
0
10
85.432184375
20
27.559
30
0
42
0.9572906161637668
0
VERTEX
8
0
10
85.432184375
20
25.781000000000002
30
0
0
VERTEX
8
0
10
87.28781562500001
20
25.781000000000002
30
0
0
SEQEND
0
POLYLINE
66
1
8
1_copper
10
0.0
20
0.0
30
0.0
70
1
0
VERTEX
8
0
10
73.071
20
26.001
30
0
0
VERTEX
8
0
10
71.709
20
26.001
30
0
0
VERTEX
8
0
10
71.709
20
24.639000000000003
30
0
0
VERTEX
8
0
10
73.071
20
24.639000000000003
30
0
0
SEQEND
0
POLYLINE
66
1
8
1_copper
10
0.0
20
0.0
30
0.0
70
1
0
VERTEX
8
0
10
73.1774
20
22.53385
30
0
0
VERTEX
8
0
10
73.1774
20
23.18615
30
0
0
VERTEX
8
0
10
72.71615
20
23.6474
30
0
0
VERTEX
8
0
10
72.06385
20
23.6474
30
0
0
VERTEX
8
0
10
71.60260000000001
20
23.18615
30
0
0
VERTEX
8
0
10
71.60260000000001
20
22.53385
30
0
0
VERTEX
8
0
10
72.06385
20
22.0726
30
0
0
VERTEX
8
0
10
72.71615
20
22.0726
30
0
0
SEQEND
0
POLYLINE
66
1
8
16_copper
10
0.0
20
0.0
30
0.0
70
1
0
VERTEX
8
0
10
30.47245625
20
33.782137500000005
30
0
42
0.0037132245079973267
0
VERTEX
8
0
10
30.48
20
33.782000000000004
30
0
0
VERTEX
8
0
10
33.02
20
33.782000000000004
30
0
42
0.198912367379658
0
VERTEX
8
0
10
33.379209375
20
33.930790625
30
0
0
VERTEX
8
0
10
35.770418750000005
20
36.322
30
0
0
VERTEX
8
0
10
69.63958125
20
36.322
30
0
0
VERTEX
8
0
10
70.61200000000001
20
35.34958125
30
0
0
VERTEX
8
0
10
70.61200000000001
20
26.59
30
0
42
0.198912367379658
0
VERTEX
8
0
10
70.760790625
20
26.230790625
30
0
0
VERTEX
8
0
10
71.709
20
25.28258125
30
0
0
VERTEX
8
0
10
71.709
20
24.639000000000003
30
0
0
VERTEX
8
0
10
71.882
20
24.639000000000003
30
0
0
VERTEX
8
0
10
71.882
20
23.46555
30
0
0
VERTEX
8
0
10
71.60260000000001
20
23.18615
30
0
0
VERTEX
8
0
10
71.60260000000001
20
22.53385
30
0
0
VERTEX
8
0
10
72.06385
20
22.0726
30
0
0
VERTEX
8
0
10
72.71615
20
22.0726
30
0
0
VERTEX
8
0
10
73.1774
20
22.53385
30
0
0
VERTEX
8
0
10
73.1774
20
23.18615
30
0
0
VERTEX
8
0
10
72.89800000000001
20
23.46555
30
0
0
VERTEX
8
0
10
72.89800000000001
20
24.639000000000003
30
0
0
VERTEX
8
0
10
73.071
20
24.639000000000003
30
0
0
VERTEX
8
0
10
73.071
20
25.302503125
30
0
0
VERTEX
8
0
10
73.879565625
20
26.162000000000003
30
0
0
VERTEX
8
0
10
84.7414375
20
26.162000000000003
30
0
42
0.23385812931317795
0
VERTEX
8
0
10
85.432184375
20
25.781000000000002
30
0
0
VERTEX
8
0
10
87.28781562500001
20
25.781000000000002
30
0
42
0.9572906161637668
0
VERTEX
8
0
10
87.28781562500001
20
27.559
30
0
0
VERTEX
8
0
10
85.432184375
20
27.559
30
0
42
0.23385812931317795
0
VERTEX
8
0
10
84.7414375
20
27.178
30
0
0
VERTEX
8
0
10
73.66
20
27.178
30
0
42
0.20685725214581702
0
VERTEX
8
0
10
73.28999375000001
20
27.01808125
30
0
0
VERTEX
8
0
10
72.3788625
20
26.049556250000002
30
0
0
VERTEX
8
0
10
71.628
20
26.800418750000002
30
0
0
VERTEX
8
0
10
71.628
20
35.56
30
0
42
0.198912367379658
0
VERTEX
8
0
10
71.479209375
20
35.919209375
30
0
0
VERTEX
8
0
10
70.209209375
20
37.189209375000004
30
0
42
0.198912367379658
0
VERTEX
8
0
10
69.85000000000001
20
37.338
30
0
0
VERTEX
8
0
10
35.770418750000005
20
37.338
30
0
0
VERTEX
8
0
10
34.258
20
38.85041875
30
0
0
VERTEX
8
0
10
34.258
20
40.56
30
0
42
0.9999999999999999
0
VERTEX
8
0
10
33.242000000000004
20
40.56
30
0
0
VERTEX
8
0
10
33.242000000000004
20
38.64
30
0
42
0.198912367379658
0
VERTEX
8
0
10
33.390790625
20
38.280790625
30
0
0
VERTEX
8
0
10
34.841581250000004
20
36.83
30
0
0
VERTEX
8
0
10
32.80958125
20
34.798
30
0
0
VERTEX
8
0
10
30.576321875
20
34.798
30
0
42
0.09568816925783527
0
VERTEX
8
0
10
30.380084375000003
20
34.798
30
0
0
VERTEX
8
0
10
21.800418750000002
20
34.798
30
0
0
VERTEX
8
0
10
21.558
20
35.04041875
30
0
0
VERTEX
8
0
10
21.558
20
40.56
30
0
42
0.9999999999999999
0
VERTEX
8
0
10
20.542
20
40.56
30
0
0
VERTEX
8
0
10
20.542
20
34.83
30
0
42
0.015774818616454113
0
VERTEX
8
0
10
20.54349375
20
34.798
30
0
0
VERTEX
8
0
10
12.700000000000001
20
34.798
30
0
42
0.198912367379658
0
VERTEX
8
0
10
12.340790625
20
34.649209375000005
30
0
0
VERTEX
8
0
10
11.070790625
20
33.379209375
30
0
42
0.198912367379658
0
VERTEX
8
0
10
10.922
20
33.02
30
0
0
VERTEX
8
0
10
10.922
20
10.37041875
30
0
0
VERTEX
8
0
10
8.530790625
20
7.979209375000001
30
0
42
0.198912367379658
0
VERTEX
8
0
10
8.382
20
7.62
30
0
0
VERTEX
8
0
10
8.382
20
5.050800000000001
30
0
42
0.9293626099141804
0
VERTEX
8
0
10
9.39256875
20
4.976703125
30
0
0
VERTEX
8
0
10
9.398
20
5.050800000000001
30
0
0
VERTEX
8
0
10
9.398
20
7.4095812500000005
30
0
0
VERTEX
8
0
10
11.789209375
20
9.800790625000001
30
0
42
0.198912367379658
0
VERTEX
8
0
10
11.938
20
10.16
30
0
0
VERTEX
8
0
10
11.938
20
32.80958125
30
0
0
VERTEX
8
0
10
12.91041875
20
33.782000000000004
30
0
0
VERTEX
8
0
10
30.470000000000002
20
33.782000000000004
30
0
0
SEQEND
0
POLYLINE
66
1
8
1_copper
10
0.0
20
0.0
30
0.0
70
1
0
VERTEX
8
0
10
2.656146875
20
36.328765625
30
0
42
0.36397036963702983
0
VERTEX
8
0
10
3.4290000000000003
20
37.172184375
30
0
0
VERTEX
8
0
10
3.4290000000000003
20
39.027815625
30
0
42
0.9572906161637668
0
VERTEX
8
0
10
1.651
20
39.027815625
30
0
0
VERTEX
8
0
10
1.651
20
37.172184375
30
0
0
VERTEX
8
0
10
1.6577656250000001
20
37.094853125
30
0
0
VERTEX
8
0
10
1.671246875
20
37.018403125
30
0
0
VERTEX
8
0
10
1.6913375000000002
20
36.94341875
30
0
0
VERTEX
8
0
10
1.7178875
20
36.870471875
30
0
0
VERTEX
8
0
10
1.750696875
20
36.800115625000004
30
0
0
VERTEX
8
0
10
1.7895093750000002
20
36.732884375000005
30
0
0
VERTEX
8
0
10
1.8340375
20
36.669296875
30
0
0
VERTEX
8
0
10
1.8839375
20
36.609828125
30
0
0
VERTEX
8
0
10
1.9388281250000001
20
36.5549375
30
0
0
VERTEX
8
0
10
1.998296875
20
36.5050375
30
0
0
VERTEX
8
0
10
2.061884375
20
36.460509375
30
0
0
VERTEX
8
0
10
2.1291156250000003
20
36.421696875
30
0
0
VERTEX
8
0
10
2.199471875
20
36.3888875
30
0
0
VERTEX
8
0
10
2.27241875
20
36.3623375
30
0
0
VERTEX
8
0
10
2.347403125
20
36.342246875
30
0
0
VERTEX
8
0
10
2.423853125
20
36.328765625
30
0
0
VERTEX
8
0
10
2.5011843750000002
20
36.322
30
0
0
VERTEX
8
0
10
2.5788156250000003
20
36.322
30
0
0
SEQEND
0
POLYLINE
66
1
8
1_copper
10
0.0
20
0.0
30
0.0
70
1
0
VERTEX
8
0
10
8.4074
20
17.37385
30
0
0
VERTEX
8
0
10
8.4074
20
18.02615
30
0
0
VERTEX
8
0
10
7.94615
20
18.4874
30
0
0
VERTEX
8
0
10
7.29385
20
18.4874
30
0
0
VERTEX
8
0
10
6.8326
20
18.02615
30
0
0
VERTEX
8
0
10
6.8326
20
17.37385
30
0
0
VERTEX
8
0
10
7.29385
20
16.9126
30
0
0
VERTEX
8
0
10
7.94615
20
16.9126
30
0
0
SEQEND
0
POLYLINE
66
1
8
16_copper
10
0.0
20
0.0
30
0.0
70
1
0
VERTEX
8
0
10
8.4074
20
17.37385
30
0
0
VERTEX
8
0
10
8.4074
20
18.02615
30
0
0
VERTEX
8
0
10
7.94615
20
18.4874
30
0
0
VERTEX
8
0
10
7.29385
20
18.4874
30
0
0
VERTEX
8
0
10
7.09445
20
18.288
30
0
0
VERTEX
8
0
10
6.56041875
20
18.288
30
0
0
VERTEX
8
0
10
5.588
20
19.26041875
30
0
0
VERTEX
8
0
10
5.588
20
27.94
30
0
42
0.198912367379658
0
VERTEX
8
0
10
5.439209375
20
28.299209375
30
0
0
VERTEX
8
0
10
3.048
20
30.690418750000003
30
0
0
VERTEX
8
0
10
3.048
20
36.4814375
30
0
42
0.23385812931317795
0
VERTEX
8
0
10
3.4290000000000003
20
37.172184375
30
0
0
VERTEX
8
0
10
3.4290000000000003
20
39.027815625
30
0
42
0.9572906161637668
0
VERTEX
8
0
10
1.651
20
39.027815625
30
0
0
VERTEX
8
0
10
1.651
20
37.172184375
30
0
42
0.23385812931317795
0
VERTEX
8
0
10
2.032
20
36.4814375
30
0
0
VERTEX
8
0
10
2.032
20
30.48
30
0
42
0.198912367379658
0
VERTEX
8
0
10
2.180790625
20
30.120790625
30
0
0
VERTEX
8
0
10
4.572
20
27.729581250000003
30
0
0
VERTEX
8
0
10
4.572
20
19.05
30
0
42
0.198912367379658
0
VERTEX
8
0
10
4.720790625
20
18.690790625
30
0
0
VERTEX
8
0
10
5.990790625000001
20
17.420790625000002
30
0
42
0.198912367379658
0
VERTEX
8
0
10
6.3500000000000005
20
17.272000000000002
30
0
0
VERTEX
8
0
10
6.93445
20
17.272000000000002
30
0
0
VERTEX
8
0
10
7.29385
20
16.9126
30
0
0
VERTEX
8
0
10
7.94615
20
16.9126
30
0
0
SEQEND
0
POLYLINE
66
1
8
1_copper
10
0.0
20
0.0
30
0.0
70
1
0
VERTEX
8
0
10
5.196146875
20
36.328765625
30
0
42
0.36397036963702983
0
VERTEX
8
0
10
5.969
20
37.172184375
30
0
0
VERTEX
8
0
10
5.969
20
39.027815625
30
0
42
0.9572906161637668
0
VERTEX
8
0
10
4.191
20
39.027815625
30
0
0
VERTEX
8
0
10
4.191
20
37.172184375
30
0
0
VERTEX
8
0
10
4.197765625000001
20
37.094853125
30
0
0
VERTEX
8
0
10
4.2112468750000005
20
37.018403125
30
0
0
VERTEX
8
0
10
4.2313375
20
36.94341875
30
0
0
VERTEX
8
0
10
4.2578875
20
36.870471875
30
0
0
VERTEX
8
0
10
4.290696875
20
36.800115625000004
30
0
0
VERTEX
8
0
10
4.329509375
20
36.732884375000005
30
0
0
VERTEX
8
0
10
4.3740375
20
36.669296875
30
0
0
VERTEX
8
0
10
4.4239375
20
36.609828125
30
0
0
VERTEX
8
0
10
4.478828125000001
20
36.5549375
30
0
0
VERTEX
8
0
10
4.538296875
20
36.5050375
30
0
0
VERTEX
8
0
10
4.601884375
20
36.460509375
30
0
0
VERTEX
8
0
10
4.669115625
20
36.421696875
30
0
0
VERTEX
8
0
10
4.7394718750000004
20
36.3888875
30
0
0
VERTEX
8
0
10
4.81241875
20
36.3623375
30
0
0
VERTEX
8
0
10
4.8874031250000005
20
36.342246875
30
0
0
VERTEX
8
0
10
4.963853125
20
36.328765625
30
0
0
VERTEX
8
0
10
5.041184375
20
36.322
30
0
0
VERTEX
8
0
10
5.118815625
20
36.322
30
0
0
SEQEND
0
POLYLINE
66
1
8
1_copper
10
0.0
20
0.0
30
0.0
70
1
0
VERTEX
8
0
10
8.4074
20
19.91385
30
0
0
VERTEX
8
0
10
8.4074
20
20.56615
30
0
0
VERTEX
8
0
10
7.94615
20
21.0274
30
0
0
VERTEX
8
0
10
7.29385
20
21.0274
30
0
0
VERTEX
8
0
10
6.8326
20
20.56615
30
0
0
VERTEX
8
0
10
6.8326
20
19.91385
30
0
0
VERTEX
8
0
10
7.29385
20
19.4526
30
0
0
VERTEX
8
0
10
7.94615
20
19.4526
30
0
0
SEQEND
0
POLYLINE
66
1
8
16_copper
10
0.0
20
0.0
30
0.0
70
1
0
VERTEX
8
0
10
8.4074
20
19.91385
30
0
0
VERTEX
8
0
10
8.4074
20
20.56615
30
0
0
VERTEX
8
0
10
7.94615
20
21.0274
30
0
0
VERTEX
8
0
10
7.551018750000001
20
21.0274
30
0
0
VERTEX
8
0
10
6.8580000000000005
20
21.72041875
30
0
0
VERTEX
8
0
10
6.8580000000000005
20
29.21
30
0
42
0.198912367379658
0
VERTEX
8
0
10
6.709209375
20
29.569209375
30
0
0
VERTEX
8
0
10
5.588
20
30.690418750000003
30
0
0
VERTEX
8
0
10
5.588
20
36.4814375
30
0
42
0.23385812931317795
0
VERTEX
8
0
10
5.969
20
37.172184375
30
0
0
VERTEX
8
0
10
5.969
20
39.027815625
30
0
42
0.9572906161637668
0
VERTEX
8
0
10
4.191
20
39.027815625
30
0
0
VERTEX
8
0
10
4.191
20
37.172184375
30
0
42
0.23385812931317795
0
VERTEX
8
0
10
4.572
20
36.4814375
30
0
0
VERTEX
8
0
10
4.572
20
30.48
30
0
42
0.198912367379658
0
VERTEX
8
0
10
4.720790625
20
30.120790625
30
0
0
VERTEX
8
0
10
5.8420000000000005
20
28.999581250000002
30
0
0
VERTEX
8
0
10
5.8420000000000005
20
21.51
30
0
42
0.198912367379658
0
VERTEX
8
0
10
5.990790625000001
20
21.150790625000003
30
0
0
VERTEX
8
0
10
6.8326
20
20.308981250000002
30
0
0
VERTEX
8
0
10
6.8326
20
19.91385
30
0
0
VERTEX
8
0
10
7.29385
20
19.4526
30
0
0
VERTEX
8
0
10
7.94615
20
19.4526
30
0
0
SEQEND
0
POLYLINE
66
1
8
1_copper
10
0.0
20
0.0
30
0.0
70
1
0
VERTEX
8
0
10
16.0274
20
19.91385
30
0
0
VERTEX
8
0
10
16.0274
20
20.56615
30
0
0
VERTEX
8
0
10
15.56615
20
21.0274
30
0
0
VERTEX
8
0
10
14.91385
20
21.0274
30
0
0
VERTEX
8
0
10
14.4526
20
20.56615
30
0
0
VERTEX
8
0
10
14.4526
20
19.91385
30
0
0
VERTEX
8
0
10
14.91385
20
19.4526
30
0
0
VERTEX
8
0
10
15.56615
20
19.4526
30
0
0
SEQEND
0
POLYLINE
66
1
8
16_copper
10
0.0
20
0.0
30
0.0
70
1
0
VERTEX
8
0
10
15.845550000000001
20
19.732
30
0
0
VERTEX
8
0
10
30.400000000000002
20
19.732
30
0
42
0.198912367379658
0
VERTEX
8
0
10
30.759209375
20
19.880790625
30
0
0
VERTEX
8
0
10
32.109209375
20
21.230790625
30
0
42
0.198912367379658
0
VERTEX
8
0
10
32.258
20
21.59
30
0
0
VERTEX
8
0
10
32.258
20
25.066000000000003
30
0
42
0.9999999999999999
0
VERTEX
8
0
10
31.242
20
25.066000000000003
30
0
0
VERTEX
8
0
10
31.242
20
21.800418750000002
30
0
0
VERTEX
8
0
10
30.18958125
20
20.748
30
0
0
VERTEX
8
0
10
15.845550000000001
20
20.748
30
0
0
VERTEX
8
0
10
15.56615
20
21.0274
30
0
0
VERTEX
8
0
10
14.91385
20
21.0274
30
0
0
VERTEX
8
0
10
14.4526
20
20.56615
30
0
0
VERTEX
8
0
10
14.4526
20
19.91385
30
0
0
VERTEX
8
0
10
14.91385
20
19.4526
30
0
0
VERTEX
8
0
10
15.56615
20
19.4526
30
0
0
SEQEND
0
POLYLINE
66
1
8
1_copper
10
0.0
20
0.0
30
0.0
70
1
0
VERTEX
8
0
10
16.0274
20
22.453850000000003
30
0
0
VERTEX
8
0
10
16.0274
20
23.10615
30
0
0
VERTEX
8
0
10
15.56615
20
23.567400000000003
30
0
0
VERTEX
8
0
10
14.91385
20
23.567400000000003
30
0
0
VERTEX
8
0
10
14.4526
20
23.10615
30
0
0
VERTEX
8
0
10
14.4526
20
22.453850000000003
30
0
0
VERTEX
8
0
10
14.91385
20
21.9926
30
0
0
VERTEX
8
0
10
15.56615
20
21.9926
30
0
0
SEQEND
0
POLYLINE
66
1
8
16_copper
10
0.0
20
0.0
30
0.0
70
1
0
VERTEX
8
0
10
15.845550000000001
20
22.272000000000002
30
0
0
VERTEX
8
0
10
27.860000000000003
20
22.272000000000002
30
0
42
0.198912367379658
0
VERTEX
8
0
10
28.219209375000002
20
22.420790625000002
30
0
0
VERTEX
8
0
10
29.569209375
20
23.770790625
30
0
42
0.198912367379658
0
VERTEX
8
0
10
29.718
20
24.130000000000003
30
0
0
VERTEX
8
0
10
29.718
20
25.066000000000003
30
0
42
0.9999999999999999
0
VERTEX
8
0
10
28.702
20
25.066000000000003
30
0
0
VERTEX
8
0
10
28.702
20
24.34041875
30
0
0
VERTEX
8
0
10
27.64958125
20
23.288
30
0
0
VERTEX
8
0
10
15.845550000000001
20
23.288
30
0
0
VERTEX
8
0
10
15.56615
20
23.567400000000003
30
0
0
VERTEX
8
0
10
14.91385
20
23.567400000000003
30
0
0
VERTEX
8
0
10
14.4526
20
23.10615
30
0
0
VERTEX
8
0
10
14.4526
20
22.453850000000003
30
0
0
VERTEX
8
0
10
14.91385
20
21.9926
30
0
0
VERTEX
8
0
10
15.56615
20
21.9926
30
0
0
SEQEND
0
POLYLINE
66
1
8
1_copper
10
0.0
20
0.0
30
0.0
70
1
0
VERTEX
8
0
10
38.8874
20
32.61385
30
0
0
VERTEX
8
0
10
38.8874
20
33.26615
30
0
0
VERTEX
8
0
10
38.42615
20
33.7274
30
0
0
VERTEX
8
0
10
37.77385
20
33.7274
30
0
0
VERTEX
8
0
10
37.3126
20
33.26615
30
0
0
VERTEX
8
0
10
37.3126
20
32.61385
30
0
0
VERTEX
8
0
10
37.77385
20
32.1526
30
0
0
VERTEX
8
0
10
38.42615
20
32.1526
30
0
0
SEQEND
0
POLYLINE
66
1
8
16_copper
10
0.0
20
0.0
30
0.0
70
1
0
VERTEX
8
0
10
24.17728125
20
24.81420625
30
0
42
0.3871695768438092
0
VERTEX
8
0
10
24.638
20
25.32
30
0
0
VERTEX
8
0
10
24.638
20
31.53958125
30
0
0
VERTEX
8
0
10
25.530418750000003
20
32.432
30
0
0
VERTEX
8
0
10
37.49445
20
32.432
30
0
0
VERTEX
8
0
10
37.77385
20
32.1526
30
0
0
VERTEX
8
0
10
38.42615
20
32.1526
30
0
0
VERTEX
8
0
10
38.8874
20
32.61385
30
0
0
VERTEX
8
0
10
38.8874
20
33.26615
30
0
0
VERTEX
8
0
10
38.42615
20
33.7274
30
0
0
VERTEX
8
0
10
37.77385
20
33.7274
30
0
0
VERTEX
8
0
10
37.49445
20
33.448
30
0
0
VERTEX
8
0
10
25.32
20
33.448
30
0
42
0.198912367379658
0
VERTEX
8
0
10
24.960790625
20
33.299209375000004
30
0
0
VERTEX
8
0
10
23.770790625
20
32.109209375
30
0
42
0.198912367379658
0
VERTEX
8
0
10
23.622
20
31.75
30
0
0
VERTEX
8
0
10
23.622
20
25.32
30
0
0
VERTEX
8
0
10
23.625121875
20
25.263762500000002
30
0
0
VERTEX
8
0
10
23.634453125
20
25.208212500000002
30
0
0
VERTEX
8
0
10
23.649875
20
25.154040625
30
0
0
VERTEX
8
0
10
23.671196875
20
25.101906250000003
30
0
0
VERTEX
8
0
10
23.698162500000002
20
25.052456250000002
30
0
0
VERTEX
8
0
10
23.730434375
20
25.00629375
30
0
0
VERTEX
8
0
10
23.767621875
20
24.9639875
30
0
0
VERTEX
8
0
10
23.809262500000003
20
24.926056250000002
30
0
0
VERTEX
8
0
10
23.85484375
20
24.892971875
30
0
0
VERTEX
8
0
10
23.903809375
20
24.865134375
30
0
0
VERTEX
8
0
10
23.95555625
20
24.842890625000003
30
0
0
VERTEX
8
0
10
24.00945
20
24.8265125
30
0
0
VERTEX
8
0
10
24.064821875
20
24.816200000000002
30
0
0
VERTEX
8
0
10
24.120996875
20
24.812081250000002
30
0
0
SEQEND
0
POLYLINE
66
1
8
1_copper
10
0.0
20
0.0
30
0.0
70
1
0
VERTEX
8
0
10
19.837400000000002
20
28.883850000000002
30
0
0
VERTEX
8
0
10
19.837400000000002
20
29.536150000000003
30
0
0
VERTEX
8
0
10
19.376150000000003
20
29.997400000000003
30
0
0
VERTEX
8
0
10
18.723850000000002
20
29.997400000000003
30
0
0
VERTEX
8
0
10
18.262600000000003
20
29.536150000000003
30
0
0
VERTEX
8
0
10
18.262600000000003
20
28.883850000000002
30
0
0
VERTEX
8
0
10
18.723850000000002
20
28.422600000000003
30
0
0
VERTEX
8
0
10
19.376150000000003
20
28.422600000000003
30
0
0
SEQEND
0
POLYLINE
66
1
8
16_copper
10
0.0
20
0.0
30
0.0
70
1
0
VERTEX
8
0
10
18.545121875
20
25.263762500000002
30
0
42
0.9460177413071488
0
VERTEX
8
0
10
19.558
20
25.32
30
0
0
VERTEX
8
0
10
19.558
20
28.60445
30
0
0
VERTEX
8
0
10
19.837400000000002
20
28.883850000000002
30
0
0
VERTEX
8
0
10
19.837400000000002
20
29.536150000000003
30
0
0
VERTEX
8
0
10
19.376150000000003
20
29.997400000000003
30
0
0
VERTEX
8
0
10
18.723850000000002
20
29.997400000000003
30
0
0
VERTEX
8
0
10
18.262600000000003
20
29.536150000000003
30
0
0
VERTEX
8
0
10
18.262600000000003
20
28.883850000000002
30
0
0
VERTEX
8
0
10
18.542
20
28.60445
30
0
0
VERTEX
8
0
10
18.542
20
25.32
30
0
0
SEQEND
0
CIRCLE
8
drills_NPTH
10
48.260000000000005
20
24.05
30
0
40
1.27
0
CIRCLE
8
drills_NPTH
10
48.260000000000005
20
6.2700000000000005
30
0
40
1.27
0
CIRCLE
8
drills_PTH
10
2.54
20
24.05
30
0
40
1.25
0
CIRCLE
8
drills_PTH
10
2.54
20
6.2700000000000005
30
0
40
1.25
0
CIRCLE
8
drills_PTH
10
27.55
20
40.56
30
0
40
0.75
0
CIRCLE
8
drills_PTH
10
35.85
20
40.56
30
0
40
0.75
0
CIRCLE
8
drills_PTH
10
14.850000000000001
20
40.56
30
0
40
0.75
0
CIRCLE
8
drills_PTH
10
23.150000000000002
20
40.56
30
0
40
0.75
0
CIRCLE
8
drills_PTH
10
86.36
20
21.59
30
0
40
0.508
0
CIRCLE
8
drills_PTH
10
86.36
20
24.130000000000003
30
0
40
0.508
0
CIRCLE
8
drills_PTH
10
86.36
20
26.67
30
0
40
0.508
0
CIRCLE
8
drills_PTH
10
86.36
20
8.89
30
0
40
0.508
0
CIRCLE
8
drills_PTH
10
10.16
20
38.1
30
0
40
0.508
0
CIRCLE
8
drills_PTH
10
86.36
20
19.05
30
0
40
0.508
0
CIRCLE
8
drills_PTH
10
86.36
20
16.51
30
0
40
0.508
0
CIRCLE
8
drills_PTH
10
86.36
20
13.97
30
0
40
0.508
0
CIRCLE
8
drills_PTH
10
86.36
20
11.43
30
0
40
0.508
0
CIRCLE
8
drills_PTH
10
86.36
20
6.3500000000000005
30
0
40
0.508
0
CIRCLE
8
drills_PTH
10
86.36
20
3.81
30
0
40
0.508
0
CIRCLE
8
drills_PTH
10
2.54
20
38.1
30
0
40
0.508
0
CIRCLE
8
drills_PTH
10
5.08
20
38.1
30
0
40
0.508
0
CIRCLE
8
drills_PTH
10
7.62
20
38.1
30
0
40
0.508
0
CIRCLE
8
drills_PTH
10
41.910000000000004
20
25.32
30
0
40
0.5
0
CIRCLE
8
drills_PTH
10
44.45
20
25.32
30
0
40
0.5
0
CIRCLE
8
drills_PTH
10
16.51
20
5
30
0
40
0.5
0
CIRCLE
8
drills_PTH
10
19.05
20
5
30
0
40
0.5
0
CIRCLE
8
drills_PTH
10
21.59
20
5
30
0
40
0.5
0
CIRCLE
8
drills_PTH
10
24.130000000000003
20
5
30
0
40
0.5
0
CIRCLE
8
drills_PTH
10
26.67
20
5
30
0
40
0.5
0
CIRCLE
8
drills_PTH
10
29.21
20
5
30
0
40
0.5
0
CIRCLE
8
drills_PTH
10
31.75
20
5
30
0
40
0.5
0
CIRCLE
8
drills_PTH
10
34.29
20
5
30
0
40
0.5
0
CIRCLE
8
drills_PTH
10
36.83
20
5
30
0
40
0.5
0
CIRCLE
8
drills_PTH
10
39.370000000000005
20
5
30
0
40
0.5
0
CIRCLE
8
drills_PTH
10
41.910000000000004
20
5
30
0
40
0.5
0
CIRCLE
8
drills_PTH
10
44.45
20
5
30
0
40
0.5
0
CIRCLE
8
drills_PTH
10
13.97
20
5
30
0
40
0.5
0
CIRCLE
8
drills_PTH
10
11.43
20
5
30
0
40
0.5
0
CIRCLE
8
drills_PTH
10
8.89
20
5
30
0
40
0.5
0
CIRCLE
8
drills_PTH
10
6.3500000000000005
20
5
30
0
40
0.5
0
CIRCLE
8
drills_PTH
10
19.05
20
25.32
30
0
40
0.5
0
CIRCLE
8
drills_PTH
10
16.51
20
25.32
30
0
40
0.5
0
CIRCLE
8
drills_PTH
10
21.59
20
25.32
30
0
40
0.5
0
CIRCLE
8
drills_PTH
10
24.130000000000003
20
25.32
30
0
40
0.5
0
CIRCLE
8
drills_PTH
10
26.67
20
25.32
30
0
40
0.5
0
CIRCLE
8
drills_PTH
10
29.21
20
25.32
30
0
40
0.5
0
CIRCLE
8
drills_PTH
10
31.75
20
25.32
30
0
40
0.5
0
CIRCLE
8
drills_PTH
10
34.29
20
25.32
30
0
40
0.5
0
CIRCLE
8
drills_PTH
10
36.83
20
25.32
30
0
40
0.5
0
CIRCLE
8
drills_PTH
10
39.370000000000005
20
25.32
30
0
40
0.5
0
CIRCLE
8
drills_PTH
10
72.39
20
7.62
30
0
40
0.40640000000000004
0
CIRCLE
8
drills_PTH
10
15.24
20
22.78
30
0
40
0.40640000000000004
0
CIRCLE
8
drills_PTH
10
7.62
20
22.78
30
0
40
0.40640000000000004
0
CIRCLE
8
drills_PTH
10
15.24
20
17.7
30
0
40
0.40640000000000004
0
CIRCLE
8
drills_PTH
10
72.39
20
22.86
30
0
40
0.40640000000000004
0
CIRCLE
8
drills_PTH
10
7.62
20
17.7
30
0
40
0.40640000000000004
0
CIRCLE
8
drills_PTH
10
15.24
20
20.240000000000002
30
0
40
0.40640000000000004
0
CIRCLE
8
drills_PTH
10
19.05
20
29.21
30
0
40
0.40640000000000004
0
CIRCLE
8
drills_PTH
10
19.05
20
36.83
30
0
40
0.40640000000000004
0
CIRCLE
8
drills_PTH
10
31.75
20
29.21
30
0
40
0.40640000000000004
0
CIRCLE
8
drills_PTH
10
31.75
20
36.83
30
0
40
0.40640000000000004
0
CIRCLE
8
drills_PTH
10
7.62
20
20.240000000000002
30
0
40
0.40640000000000004
0
CIRCLE
8
drills_PTH
10
38.1
20
32.940000000000005
30
0
40
0.40640000000000004
0
CIRCLE
8
drills_PTH
10
45.72
20
32.940000000000005
30
0
40
0.40640000000000004
0
CIRCLE
8
drills_PTH
10
21.05
20
40.56
30
0
40
0.4
0
CIRCLE
8
drills_PTH
10
19.05
20
40.56
30
0
40
0.4
0
CIRCLE
8
drills_PTH
10
29.85
20
40.56
30
0
40
0.4
0
CIRCLE
8
drills_PTH
10
33.75
20
40.56
30
0
40
0.4
0
CIRCLE
8
drills_PTH
10
31.75
20
40.56
30
0
40
0.4
0
CIRCLE
8
drills_PTH
10
17.150000000000002
20
40.56
30
0
40
0.4
0
CIRCLE
8
drills_PTH
10
72.39
20
25.32
30
0
40
0.3
0
CIRCLE
8
drills_PTH
10
69.85000000000001
20
25.32
30
0
40
0.3
0
CIRCLE
8
drills_PTH
10
67.31
20
25.32
30
0
40
0.3
0
CIRCLE
8
drills_PTH
10
64.77
20
25.32
30
0
40
0.3
0
CIRCLE
8
drills_PTH
10
62.230000000000004
20
25.32
30
0
40
0.3
0
CIRCLE
8
drills_PTH
10
59.690000000000005
20
25.32
30
0
40
0.3
0
CIRCLE
8
drills_PTH
10
69.85000000000001
20
7.54
30
0
40
0.3
0
CIRCLE
8
drills_PTH
10
64.77
20
7.54
30
0
40
0.3
0
CIRCLE
8
drills_PTH
10
62.230000000000004
20
7.54
30
0
40
0.3
0
CIRCLE
8
drills_PTH
10
67.31
20
7.54
30
0
40
0.3
0
ENDSEC
0
EOF